<?xml version="1.0" encoding="utf-8"?>
<!-- Generator: Adobe Illustrator 21.0.2, SVG Export Plug-In . SVG Version: 6.00 Build 0)  -->
<svg version="1.1" id="Camada_1" xmlns="http://www.w3.org/2000/svg" xmlns:xlink="http://www.w3.org/1999/xlink" x="0px" y="0px"
	 viewBox="0 0 60 60" style="enable-background:new 0 0 60 60;" xml:space="preserve">
<style type="text/css">
	.st0{fill:#FFFFFF;}
</style>
<g>
	<path class="st0" d="M27.2,42.7c2.2,2.2,3.4,2.3,5.7,0l16.7-17.1c1.6-2.6,0.3-4.8-2.8-4.8h-7.5V4.3c0-2-1.6-3.7-3.7-3.7h-11
		c-2,0-3.7,1.6-3.7,3.7v16.5h-7.5c-3.1,0-4.4,2.2-2.8,4.8L27.2,42.7z M55.7,50.2H4.3c-2,0-3.7,1.6-3.7,3.7v1.8c0,2,1.6,3.7,3.7,3.7
		h51.3c2,0,3.7-1.6,3.7-3.7v-1.8C59.3,51.8,57.7,50.2,55.7,50.2L55.7,50.2z"/>
</g>
</svg>
