<?xml version="1.0" encoding="utf-8"?>
<!-- Generator: Adobe Illustrator 17.1.0, SVG Export Plug-In . SVG Version: 6.00 Build 0)  -->
<!DOCTYPE svg PUBLIC "-//W3C//DTD SVG 1.1//EN" "http://www.w3.org/Graphics/SVG/1.1/DTD/svg11.dtd">
<svg version="1.1" id="Camada_1" xmlns="http://www.w3.org/2000/svg" xmlns:xlink="http://www.w3.org/1999/xlink" x="0px" y="0px"
	 viewBox="0 0 262.5 231.4" enable-background="new 0 0 262.5 231.4" xml:space="preserve">
<g>
	<path fill="#FFFFFF" d="M139.1,15.9v8.5c0,1.1-0.9,2-2,2H31.8c-1.1,0-2-0.9-2-2v-8.5c0-1.1,0.9-2,2-2h105.3
		C138.2,13.9,139.1,14.8,139.1,15.9z"/>
	<path fill="#FFFFFF" d="M233.1,15.9v8.5c0,1.1-0.9,2-2,2h-80.6c-1.1,0-2-0.9-2-2v-8.5c0-1.1,0.9-2,2-2h80.6
		C232.2,13.9,233.1,14.8,233.1,15.9z"/>
	<path fill="#FFFFFF" d="M233.1,207v8.5c0,1.1-0.9,2-2,2h-80.6c-1.1,0-2-0.9-2-2V207c0-1.1,0.9-2,2-2h80.6
		C232.2,205,233.1,205.9,233.1,207z"/>
	<path fill="#FFFFFF" d="M139.1,207v8.5c0,1.1-0.9,2-2,2H56.4c-1.1,0-2-0.9-2-2V207c0-1.1,0.9-2,2-2h80.6
		C138.2,205,139.1,205.9,139.1,207z"/>
	<g>
		<path fill="#FFFFFF" d="M233.1,128.2v39c0,1.1-0.9,2-2,2H88.3c-1.1,0-2-0.9-2-2v-39c0-1.1,0.9-2,2-2h142.8
			C232.2,126.2,233.1,127.1,233.1,128.2z"/>
	</g>
	<g>
		<g>
			<path fill="#FFFFFF" d="M96.1,172.3v-3.1h-5.3v3.1c0,0.6,0.4,1,1,1h3.3C95.6,173.3,96.1,172.9,96.1,172.3z"/>
		</g>
		<g>
			<path fill="#FFFFFF" d="M104.9,172.3v-3.1h-5.3v3.1c0,0.6,0.4,1,1,1h3.3C104.5,173.3,104.9,172.9,104.9,172.3z"/>
		</g>
		<g>
			<path fill="#FFFFFF" d="M113.7,172.3v-3.1h-5.3v3.1c0,0.6,0.4,1,1,1h3.3C113.3,173.3,113.7,172.9,113.7,172.3z"/>
		</g>
		<g>
			<path fill="#FFFFFF" d="M122.6,172.3v-3.1h-5.3v3.1c0,0.6,0.4,1,1,1h3.3C122.1,173.3,122.6,172.9,122.6,172.3z"/>
		</g>
		<g>
			<path fill="#FFFFFF" d="M131.4,172.3v-3.1h-5.3v3.1c0,0.6,0.4,1,1,1h3.3C131,173.3,131.4,172.9,131.4,172.3z"/>
		</g>
		<g>
			<path fill="#FFFFFF" d="M140.2,172.3v-3.1H135v3.1c0,0.6,0.4,1,1,1h3.3C139.8,173.3,140.2,172.9,140.2,172.3z"/>
		</g>
		<g>
			<path fill="#FFFFFF" d="M149.1,172.3v-3.1h-5.3v3.1c0,0.6,0.4,1,1,1h3.3C148.6,173.3,149.1,172.9,149.1,172.3z"/>
		</g>
		<g>
			<path fill="#FFFFFF" d="M157.9,172.3v-3.1h-5.3v3.1c0,0.6,0.4,1,1,1h3.3C157.4,173.3,157.9,172.9,157.9,172.3z"/>
		</g>
		<g>
			<path fill="#FFFFFF" d="M166.7,172.3v-3.1h-5.3v3.1c0,0.6,0.4,1,1,1h3.3C166.3,173.3,166.7,172.9,166.7,172.3z"/>
		</g>
		<g>
			<path fill="#FFFFFF" d="M175.6,172.3v-3.1h-5.3v3.1c0,0.6,0.4,1,1,1h3.3C175.1,173.3,175.6,172.9,175.6,172.3z"/>
		</g>
		<g>
			<path fill="#FFFFFF" d="M184.4,172.3v-3.1h-5.3v3.1c0,0.6,0.4,1,1,1h3.3C183.9,173.3,184.4,172.9,184.4,172.3z"/>
		</g>
		<g>
			<path fill="#FFFFFF" d="M193.2,172.3v-3.1H188v3.1c0,0.6,0.4,1,1,1h3.3C192.8,173.3,193.2,172.9,193.2,172.3z"/>
		</g>
		<g>
			<path fill="#FFFFFF" d="M202,172.3v-3.1h-5.3v3.1c0,0.6,0.4,1,1,1h3.3C201.6,173.3,202,172.9,202,172.3z"/>
		</g>
		<g>
			<path fill="#FFFFFF" d="M210.9,172.3v-3.1h-5.3v3.1c0,0.6,0.4,1,1,1h3.3C210.4,173.3,210.9,172.9,210.9,172.3z"/>
		</g>
		<g>
			<path fill="#FFFFFF" d="M219.7,172.3v-3.1h-5.3v3.1c0,0.6,0.4,1,1,1h3.3C219.3,173.3,219.7,172.9,219.7,172.3z"/>
		</g>
		<g>
			<path fill="#FFFFFF" d="M228.5,172.3v-3.1h-5.3v3.1c0,0.6,0.4,1,1,1h3.3C228.1,173.3,228.5,172.9,228.5,172.3z"/>
		</g>
	</g>
	<g>
		<g>
			<path fill="#FFFFFF" d="M96.1,126.2v-3.1c0-0.6-0.4-1-1-1h-3.3c-0.6,0-1,0.4-1,1v3.1H96.1z"/>
		</g>
		<g>
			<path fill="#FFFFFF" d="M104.9,126.2v-3.1c0-0.6-0.4-1-1-1h-3.3c-0.6,0-1,0.4-1,1v3.1H104.9z"/>
		</g>
		<g>
			<path fill="#FFFFFF" d="M113.7,126.2v-3.1c0-0.6-0.4-1-1-1h-3.3c-0.6,0-1,0.4-1,1v3.1H113.7z"/>
		</g>
		<g>
			<path fill="#FFFFFF" d="M122.6,126.2v-3.1c0-0.6-0.4-1-1-1h-3.3c-0.6,0-1,0.4-1,1v3.1H122.6z"/>
		</g>
		<g>
			<path fill="#FFFFFF" d="M131.4,126.2v-3.1c0-0.6-0.4-1-1-1h-3.3c-0.6,0-1,0.4-1,1v3.1H131.4z"/>
		</g>
		<g>
			<path fill="#FFFFFF" d="M140.2,126.2v-3.1c0-0.6-0.4-1-1-1H136c-0.6,0-1,0.4-1,1v3.1H140.2z"/>
		</g>
		<g>
			<path fill="#FFFFFF" d="M149.1,126.2v-3.1c0-0.6-0.4-1-1-1h-3.3c-0.6,0-1,0.4-1,1v3.1H149.1z"/>
		</g>
		<g>
			<path fill="#FFFFFF" d="M157.9,126.2v-3.1c0-0.6-0.4-1-1-1h-3.3c-0.6,0-1,0.4-1,1v3.1H157.9z"/>
		</g>
		<g>
			<path fill="#FFFFFF" d="M166.7,126.2v-3.1c0-0.6-0.4-1-1-1h-3.3c-0.6,0-1,0.4-1,1v3.1H166.7z"/>
		</g>
		<g>
			<path fill="#FFFFFF" d="M175.6,126.2v-3.1c0-0.6-0.4-1-1-1h-3.3c-0.6,0-1,0.4-1,1v3.1H175.6z"/>
		</g>
		<g>
			<path fill="#FFFFFF" d="M184.4,126.2v-3.1c0-0.6-0.4-1-1-1h-3.3c-0.6,0-1,0.4-1,1v3.1H184.4z"/>
		</g>
		<g>
			<path fill="#FFFFFF" d="M193.2,126.2v-3.1c0-0.6-0.4-1-1-1H189c-0.6,0-1,0.4-1,1v3.1H193.2z"/>
		</g>
		<g>
			<path fill="#FFFFFF" d="M202,126.2v-3.1c0-0.6-0.4-1-1-1h-3.3c-0.6,0-1,0.4-1,1v3.1H202z"/>
		</g>
		<g>
			<path fill="#FFFFFF" d="M210.9,126.2v-3.1c0-0.6-0.4-1-1-1h-3.3c-0.6,0-1,0.4-1,1v3.1H210.9z"/>
		</g>
		<g>
			<path fill="#FFFFFF" d="M219.7,126.2v-3.1c0-0.6-0.4-1-1-1h-3.3c-0.6,0-1,0.4-1,1v3.1H219.7z"/>
		</g>
		<g>
			<path fill="#FFFFFF" d="M228.5,126.2v-3.1c0-0.6-0.4-1-1-1h-3.3c-0.6,0-1,0.4-1,1v3.1H228.5z"/>
		</g>
	</g>
	<path fill="none" stroke="#FFFFFF" stroke-width="9" stroke-miterlimit="10" d="M250.8,62.3l-8.2-5.4V7.5c0-1.7-1.3-3-3-3H23.2
		c-1.7,0-3,1.3-3,3v35.8h15c0.4,0,0.7,0.4,0.7,1v40c0,0.6-0.3,1-0.7,1h-15v91h18.6c0.4,0,0.7,0.3,0.7,0.6v22.5
		c0,0.3-0.3,0.6-0.7,0.6H20.2v24c0,1.7,1.3,3,3,3h216.4c1.7,0,3-1.3,3-3v-16.4l8.2-5.4c4.4-2.9,7.1-7.8,7.1-13.2V75.4
		C258,70.1,255.3,65.2,250.8,62.3z"/>
	<path fill="none" stroke="#FFFFFF" stroke-width="9" stroke-miterlimit="10" d="M35.9,84.3v-40c0-0.6-0.3-1-0.7-1H5.2
		c-0.4,0-0.7,0.4-0.7,1v40c0,0.6,0.3,1,0.7,1h29.9C35.6,85.3,35.9,84.8,35.9,84.3z"/>
	<path fill="none" stroke="#FFFFFF" stroke-width="9" stroke-miterlimit="10" d="M39.4,199.4v-22.5c0-0.3-0.3-0.6-0.7-0.6H11.4
		c-0.4,0-0.7,0.3-0.7,0.6v22.5c0,0.3,0.3,0.6,0.7,0.6h27.3C39.1,200,39.4,199.7,39.4,199.4z"/>
</g>
</svg>
