<?xml version="1.0" encoding="utf-8"?>
<!-- Generator: Adobe Illustrator 17.1.0, SVG Export Plug-In . SVG Version: 6.00 Build 0)  -->
<!DOCTYPE svg PUBLIC "-//W3C//DTD SVG 1.1//EN" "http://www.w3.org/Graphics/SVG/1.1/DTD/svg11.dtd">
<svg version="1.1" id="Layer_1" xmlns="http://www.w3.org/2000/svg" xmlns:xlink="http://www.w3.org/1999/xlink" x="0px" y="0px"
	 viewBox="0 0 100 100" enable-background="new 0 0 100 100" xml:space="preserve">
<polygon fill="#AEB2B7" points="25,99.9 0,50 25,0 75,0 100,50 75,99.9 "/>
<g>
	<path fill="#FFFFFF" d="M15.6,39.7h8.2c2.7,0,4.7,0.4,6.1,1.3c1.3,0.9,2,2.2,2,4c0,1.3-0.3,2.4-1,3.3c-0.7,0.9-1.7,1.4-3,1.7
		c1.1,0.4,2,1.5,2.6,3.4l0,0l2.5,6.8h-5.7l-1.8-5.6c-0.3-0.9-0.7-1.5-1.2-1.9S23,52.2,22,52.2h-1v8h-5.4V39.7z M21,43.3v5.3h1.9
		c1.2,0,2.1-0.2,2.7-0.6s0.9-1.1,0.9-1.9c0-0.9-0.3-1.6-1-2s-1.7-0.7-3.1-0.7L21,43.3L21,43.3z"/>
	<path fill="#FFFFFF" d="M35.1,39.7h14.3v3.9h-8.8v4.2H49v3.9h-8.3v4.7h9.1v4H35.1V39.7z"/>
	<path fill="#FFFFFF" d="M67,39.9l-0.4,4.2c-0.8-0.4-1.6-0.6-2.4-0.8C63.4,43.1,62.7,43,62,43c-1.1,0-2,0.2-2.6,0.5
		c-0.6,0.4-0.9,0.8-0.9,1.5c0,0.4,0.2,0.8,0.5,1.1s0.8,0.6,1.4,0.8c0.2,0.1,0.5,0.2,0.9,0.3c2.4,0.8,3.9,1.4,4.7,2
		c0.7,0.6,1.3,1.2,1.6,1.9c0.3,0.7,0.5,1.6,0.5,2.5c0,2.3-0.8,4-2.3,5.2s-3.7,1.8-6.6,1.8c-1,0-2.1-0.1-3.1-0.2
		c-1-0.1-2.1-0.4-3.1-0.7l0.5-4.6c1,0.4,1.9,0.8,2.8,1c0.9,0.2,1.8,0.3,2.6,0.3c1.1,0,1.9-0.2,2.6-0.6c0.6-0.4,0.9-1,0.9-1.7
		c0-0.9-1-1.6-3-2.3c-0.5-0.2-0.9-0.3-1.1-0.4c-2-0.7-3.4-1.5-4.2-2.5c-0.8-0.9-1.3-2.1-1.3-3.6c0-2.1,0.7-3.7,2.2-4.8
		s3.6-1.7,6.4-1.7c1,0,2,0.1,2.9,0.2C65.2,39.5,66.1,39.7,67,39.9z"/>
	<path fill="#FFFFFF" d="M69.5,39.7h15.7v4.1h-5.1v16.5h-5.5V43.8h-5.1V39.7z"/>
</g>
</svg>
