<?xml version="1.0" encoding="utf-8"?>
<!-- Generator: Adobe Illustrator 17.1.0, SVG Export Plug-In . SVG Version: 6.00 Build 0)  -->
<!DOCTYPE svg PUBLIC "-//W3C//DTD SVG 1.1//EN" "http://www.w3.org/Graphics/SVG/1.1/DTD/svg11.dtd">
<svg version="1.1" id="Layer_1" xmlns="http://www.w3.org/2000/svg" xmlns:xlink="http://www.w3.org/1999/xlink" x="0px" y="0px"
	 viewBox="0 0 100 100" enable-background="new 0 0 100 100" xml:space="preserve">
<g>
	<path fill="#AEB2B7" d="M33.6,35.5c0,0.2-0.2,0.5-0.5,0.9c-2.1,2.6-5.3,5.4-9.9,8.4c-4.2,2.9-8.1,5-11.5,6.3
		c-0.4,0.1-0.8,0.3-1.2,0.7c0.2,0.2,0.5,0.5,1.1,0.7c3.5,1.6,7.2,3.8,11.3,6.6c4.5,3.1,7.8,5.9,9.9,8.4c0.4,0.5,0.6,0.9,0.6,1.2
		c0,0-0.5,1-1.5,2.9c-1,1.9-1.6,3.1-1.7,3.4s-0.3,0.5-0.5,0.5s-0.6-0.2-1.1-0.7c-6-5-10-8.3-12.1-9.8c-4.1-3-8.5-5.6-13.4-7.9
		c-0.8-0.4-1.1-0.9-1.1-1.7v-6.8c0-0.8,0.4-1.4,1.3-1.7c2-0.7,6.2-3.2,12.5-7.3c1.7-1.1,3.9-2.8,6.6-5.2c3-2.5,5.2-4.3,6.5-5.2
		c0.5-0.4,0.8-0.5,1.1-0.5C30.7,28.9,31.8,31.1,33.6,35.5z"/>
	<path fill="#AEB2B7" d="M63.1,14.6c0,0.2-0.1,0.6-0.2,1.2c-2.1,7.8-5.1,19.6-9.1,35.3c-1.3,5.1-3.2,13-5.8,23.6
		c-0.5,2.5-1.4,6.3-2.7,11.3c-0.2,0.7-0.5,1-0.8,1c-4.4-1.8-6.7-2.7-7-2.9c-0.1-0.1-0.2-0.2-0.2-0.5c0-0.3,0.1-0.8,0.3-1.4
		c2.3-7.7,5.4-19.9,9.4-36.4c1.7-7.5,4.4-18.7,8.1-33.6c0.2-0.7,0.5-1,0.8-1c0.2,0,1.5,0.5,3.8,1.5C62,13.6,63.1,14.3,63.1,14.6z"/>
	<path fill="#AEB2B7" d="M98.4,55.6c0,0.8-0.4,1.4-1.1,1.7c-8.5,4.1-17,10-25.4,17.7c-0.2,0.2-0.6,0.5-1.1,0.7
		c-2.5-4.3-3.7-6.6-3.7-6.9c0-1.5,3.2-4.4,9.6-8.8c5.6-3.9,9.7-6.3,12.2-7.4c0.4-0.1,0.7-0.4,1.1-0.7c-0.2-0.2-0.6-0.4-1.2-0.7
		C79,47,71.9,42.1,67.4,36.4c-0.3-0.4-0.5-0.7-0.5-0.9c0-0.1,0.5-1.1,1.4-2.9c1-1.8,1.5-2.9,1.6-3.3c0.1-0.4,0.2-0.5,0.4-0.5
		c0.2,0,0.5,0.2,1.1,0.6c2.8,2.4,7.2,5.9,13.1,10.4c3.5,2.3,5.5,3.6,6.2,4c2.7,1.6,4.8,2.7,6.4,3.3c0.9,0.3,1.3,0.9,1.3,1.7V55.6z"
		/>
</g>
</svg>
