<svg xmlns="http://www.w3.org/2000/svg" viewBox="-2814.785 590 12.633 18.333"><defs><style>.a{fill:#fff;}</style></defs><g transform="translate(-4048.852 360.667)"><path class="a" d="M35.078,26.9l1.421.18a1.314,1.314,0,0,0,1.421-.9,2.631,2.631,0,0,1,.744-1.218,2.373,2.373,0,0,1,1.6-.541,2.224,2.224,0,0,1,1.556.5,1.4,1.4,0,0,1,.519,1.1,1.3,1.3,0,0,1-.293.834,14.28,14.28,0,0,1-1.533,1.353,7.485,7.485,0,0,0-1.962,2.165,5.591,5.591,0,0,0-.519,2.525h0a1.333,1.333,0,0,0,1.33,1.33h1.353a1.335,1.335,0,0,0,1.33-1.263,3.376,3.376,0,0,1,.136-.834,4.073,4.073,0,0,1,1.06-1.1,12.9,12.9,0,0,0,2.593-2.638,4.12,4.12,0,0,0,.676-2.255,4.853,4.853,0,0,0-1.781-3.7A6.827,6.827,0,0,0,40.085,20.9,6.565,6.565,0,0,0,35.6,22.433,5.368,5.368,0,0,0,33.906,25.3,1.378,1.378,0,0,0,35.078,26.9Z" transform="translate(1200.188 208.433)"/><path class="a" d="M55.038,84.5H53.753A1.357,1.357,0,0,0,52.4,85.853v1.285a1.357,1.357,0,0,0,1.353,1.353h1.285a1.357,1.357,0,0,0,1.353-1.353V85.853A1.357,1.357,0,0,0,55.038,84.5Z" transform="translate(1185.843 159.175)"/></g></svg>