<?xml version="1.0" encoding="iso-8859-1"?>
<!-- Generator: Adobe Illustrator 22.0.0, SVG Export Plug-In . SVG Version: 6.00 Build 0)  -->
<svg version="1.1" id="Capa_1" xmlns="http://www.w3.org/2000/svg"  x="0px" y="0px"
	 viewBox="-49 141 512 512" style="enable-background:new -49 141 512 512;" xml:space="preserve">
<path style="fill:#F25353;" d="M55,413V179c0-15.464,12.536-28,28-28h248c15.464,0,28,12.536,28,28v234H55z"/>
<path style="fill:#34BFE0;" d="M278,514"/>
<polygon style="fill:#657FC9;" points="453,347 364.734,283.132 49.267,283.132 -39,347 49.267,410.868 364.734,410.868 "/>
<rect x="55" y="205" style="fill:#FFFFFF;" width="302.5" height="290"/>
<polygon style="fill:#34BFE0;" points="-39,347 -39,643 453,643 453,347 211.084,526.461 "/>
<polygon style="fill:#8CCEEA;" points="-39,643 453,643 207,465 "/>
<path d="M462.99,347c0.002-2.034-0.605-4.088-1.889-5.862c-0.641-0.885-1.403-1.629-2.242-2.236
	c0.001-0.001,0.002-0.002,0.003-0.003l-88.267-63.868c-0.51-0.369-1.046-0.676-1.596-0.937V179c0-20.953-17.047-38-38-38H83
	c-20.953,0-38,17.047-38,38v95.094c-0.55,0.26-1.085,0.567-1.596,0.936l-88.266,63.868c0.001,0.001,0.002,0.002,0.002,0.003
	c-0.839,0.607-1.601,1.351-2.242,2.236c-1.284,1.775-1.891,3.829-1.889,5.864c-0.003,0-0.006,0-0.009-0.001v296
	c0,5.523,4.477,10,10,10h492c0.146,0,0.277-0.008,0.399-0.02c5.336-0.211,9.601-4.592,9.601-9.98V347
	C462.997,347,462.994,347,462.99,347z M265.52,495L443,366.579v256.842L265.52,495z M-29,366.579L148.48,495L-29,623.421V366.579z
	 M435.941,347L369,395.437v-96.874L435.941,347z M83,161h248c9.925,0,18,8.075,18,18v16H138.5c-5.523,0-10,4.477-10,10
	s4.477,10,10,10H349v194.909l-100.539,72.748l0,0l-35.599-25.758c-3.499-2.531-8.226-2.531-11.725,0l-35.598,25.758L65,409.909V179
	C65,169.075,73.075,161,83,161z M45,298.563v96.874L-21.941,347L45,298.563z M-8.121,633L207,477.343L292.211,539h-46.384
	c-5.523,0-10,4.477-10,10s4.477,10,10,10h73.923c0.032,0,0.063-0.004,0.095-0.005L347.492,579H200.667c-5.523,0-10,4.477-10,10
	s4.477,10,10,10h174.466l46.989,34H-8.121z"/>
<path d="M158,579c-2.63,0-5.21,1.07-7.07,2.93S148,586.37,148,589s1.07,5.21,2.93,7.07c1.86,1.86,4.44,2.93,7.07,2.93
	s5.21-1.07,7.07-2.93S168,591.63,168,589s-1.07-5.21-2.93-7.07C163.21,580.07,160.63,579,158,579z"/>
<path d="M97.512,215H97.6c5.523,0,9.956-4.477,9.956-10s-4.521-10-10.044-10s-10,4.477-10,10S91.989,215,97.512,215z"/>
<path d="M206.974,387.057H255.5c5.523,0,10-4.477,10-10s-4.477-10-10-10h-48.526c-30.876,0-55.995-25.119-55.995-55.995v-1.01
	c0-30.876,25.119-55.995,55.995-55.995c30.875,0,55.995,25.119,55.995,55.995v16.021c0,4.954-4.03,8.984-8.984,8.984
	s-8.984-4.03-8.984-8.984v-18.096c0-22.607-18.393-41-41-41c-23.71,0-43,19.29-43,43s19.29,43,43,43h12.437c5.523,0,10-4.477,10-10
	s-4.477-10-10-10H204c-12.682,0-23-10.318-23-23s10.318-23,23-23c11.58,0,21,9.42,21,21v18.096
	c0,15.982,13.002,28.984,28.984,28.984s28.984-13.002,28.984-28.984v-16.021c0-41.904-34.091-75.995-75.995-75.995
	s-75.995,34.091-75.995,75.995v1.01C130.979,352.966,165.07,387.057,206.974,387.057z"/>
<path d="M140.979,427h131.99c5.523,0,10-4.477,10-10s-4.477-10-10-10h-131.99c-5.523,0-10,4.477-10,10S135.456,427,140.979,427z"/>
</svg>
