<?xml version="1.0" encoding="utf-8"?>
<!-- Generator: Adobe Illustrator 17.1.0, SVG Export Plug-In . SVG Version: 6.00 Build 0)  -->
<!DOCTYPE svg PUBLIC "-//W3C//DTD SVG 1.1//EN" "http://www.w3.org/Graphics/SVG/1.1/DTD/svg11.dtd">
<svg version="1.1" id="Layer_1" xmlns="http://www.w3.org/2000/svg" xmlns:xlink="http://www.w3.org/1999/xlink" x="0px" y="0px"
	 viewBox="0 0 20 20" enable-background="new 0 0 20 20" xml:space="preserve">
<path fill="#7FC142" d="M10,0C4.5,0,0,4.5,0,10c0,5.5,4.5,10,10,10c5.5,0,10-4.5,10-10C20,4.5,15.5,0,10,0z M4.6,9.2
	c0.6-0.6,1.5-0.6,2.1,0l2,2c0.1,0.1,0.4,0.1,0.5,0l5.3-5.3c0.3-0.3,0.7-0.4,1.1-0.4h0c0.4,0,0.8,0.1,1.1,0.4
	c0.3,0.3,0.4,0.7,0.4,1.1S17,7.7,16.7,8L10,14.6c-0.6,0.6-1.5,0.6-2.1,0l-3.3-3.3C4,10.7,4,9.8,4.6,9.2z"/>
</svg>
