<?xml version="1.0" encoding="utf-8"?>
<!-- Generator: Adobe Illustrator 23.0.6, SVG Export Plug-In . SVG Version: 6.00 Build 0)  -->
<svg version="1.1" id="Camada_2" xmlns="http://www.w3.org/2000/svg" xmlns:xlink="http://www.w3.org/1999/xlink" x="0px" y="0px"
	 viewBox="0 0 522.64 186.22" style="enable-background:new 0 0 522.64 186.22;" xml:space="preserve">
<style type="text/css">
	.st0{fill:#FFFFFF;}
</style>
<g>
	<g>
		<path class="st0" d="M174.46,98.06c1.51-1.64,3.08-3.35,4.69-5.13c1.61-1.78,3.18-3.54,4.69-5.28c1.51-1.74,2.94-3.4,4.28-4.98
			c1.34-1.57,2.49-2.94,3.45-4.1h18.28c-3.65,4.19-7.21,8.19-10.68,12c-3.47,3.81-7.28,7.74-11.4,11.79c2.06,1.86,4.2,4.08,6.4,6.67
			c2.2,2.58,4.33,5.25,6.4,8.01c2.06,2.76,3.96,5.51,5.68,8.27c1.72,2.76,3.16,5.27,4.33,7.55H192.9c-1.1-1.79-2.35-3.77-3.76-5.95
			c-1.41-2.17-2.9-4.34-4.48-6.52c-1.58-2.17-3.24-4.26-5-6.26c-1.75-2-3.49-3.69-5.2-5.07v23.79h-15.38v-77.6l15.38-2.48V98.06z"/>
		<path class="st0" d="M265.89,105.6c0,4.27-0.62,8.17-1.86,11.71c-1.24,3.54-3.03,6.57-5.37,9.08c-2.34,2.51-5.14,4.46-8.41,5.83
			c-3.27,1.38-6.93,2.06-10.99,2.06c-3.99,0-7.62-0.69-10.89-2.06c-3.27-1.38-6.07-3.32-8.41-5.83c-2.34-2.51-4.16-5.54-5.47-9.08
			c-1.31-3.54-1.96-7.45-1.96-11.71c0-4.26,0.67-8.15,2.01-11.66c1.34-3.51,3.2-6.5,5.57-8.98c2.37-2.48,5.19-4.4,8.46-5.78
			c3.27-1.38,6.83-2.06,10.68-2.06c3.92,0,7.51,0.69,10.78,2.06c3.27,1.38,6.07,3.3,8.41,5.78c2.34,2.48,4.16,5.47,5.47,8.98
			C265.23,97.45,265.89,101.34,265.89,105.6z M250.2,105.6c0-4.75-0.95-8.48-2.84-11.2c-1.89-2.72-4.59-4.08-8.1-4.08
			c-3.51,0-6.23,1.36-8.15,4.08c-1.93,2.72-2.89,6.45-2.89,11.2c0,4.75,0.96,8.51,2.89,11.3c1.93,2.79,4.64,4.18,8.15,4.18
			c3.51,0,6.21-1.39,8.1-4.18C249.26,114.12,250.2,110.35,250.2,105.6z"/>
		<path class="st0" d="M277.76,80.42c2.61-0.76,5.98-1.46,10.11-2.12c4.13-0.65,8.46-0.98,13-0.98c4.61,0,8.44,0.6,11.51,1.81
			c3.06,1.2,5.49,2.91,7.28,5.11c1.79,2.2,3.06,4.82,3.82,7.84c0.76,3.03,1.13,6.4,1.13,10.11v30.65h-15.38v-28.79
			c0-4.95-0.65-8.46-1.96-10.53c-1.31-2.06-3.75-3.1-7.33-3.1c-1.1,0-2.27,0.05-3.51,0.16c-1.24,0.1-2.34,0.22-3.3,0.36v41.9h-15.38
			V80.42z"/>
		<path class="st0" d="M353.91,98.06c1.51-1.64,3.08-3.35,4.69-5.13c1.61-1.78,3.18-3.54,4.69-5.28c1.51-1.74,2.94-3.4,4.28-4.98
			c1.34-1.57,2.49-2.94,3.45-4.1h18.28c-3.65,4.19-7.21,8.19-10.68,12c-3.47,3.81-7.28,7.74-11.4,11.79c2.06,1.86,4.2,4.08,6.4,6.67
			c2.2,2.58,4.33,5.25,6.4,8.01c2.06,2.76,3.96,5.51,5.68,8.27c1.72,2.76,3.16,5.27,4.33,7.55h-17.68c-1.1-1.79-2.35-3.77-3.76-5.95
			c-1.41-2.17-2.9-4.34-4.48-6.52c-1.58-2.17-3.24-4.26-5-6.26c-1.75-2-3.49-3.69-5.2-5.07v23.79h-15.38v-77.6l15.38-2.48V98.06z"/>
		<path class="st0" d="M391.99,106.12c0-4.82,0.74-9.03,2.22-12.64c1.48-3.61,3.42-6.62,5.83-9.03c2.41-2.41,5.18-4.23,8.31-5.47
			c3.13-1.24,6.35-1.86,9.65-1.86c7.7,0,13.79,2.36,18.27,7.07c4.47,4.71,6.71,11.65,6.71,20.79c0,0.9-0.03,1.88-0.1,2.94
			c-0.07,1.07-0.14,2.01-0.21,2.84h-34.88c0.34,3.16,1.82,5.68,4.44,7.53c2.61,1.86,6.12,2.79,10.53,2.79
			c2.82,0,5.59-0.26,8.31-0.77c2.72-0.52,4.94-1.15,6.66-1.91l2.06,12.49c-0.83,0.41-1.93,0.83-3.3,1.24
			c-1.38,0.41-2.91,0.77-4.59,1.08c-1.69,0.31-3.49,0.57-5.42,0.77c-1.93,0.21-3.85,0.31-5.78,0.31c-4.89,0-9.13-0.72-12.74-2.17
			c-3.61-1.44-6.6-3.42-8.98-5.93c-2.37-2.51-4.13-5.49-5.26-8.93C392.56,113.82,391.99,110.11,391.99,106.12z M428.11,100.24
			c-0.07-1.31-0.29-2.58-0.67-3.82c-0.38-1.24-0.96-2.34-1.75-3.3c-0.79-0.96-1.79-1.75-2.99-2.37c-1.2-0.62-2.7-0.93-4.49-0.93
			c-1.72,0-3.2,0.29-4.44,0.88c-1.24,0.59-2.27,1.36-3.1,2.32c-0.83,0.96-1.46,2.08-1.91,3.35c-0.45,1.27-0.77,2.56-0.98,3.87
			H428.11z"/>
		<path class="st0" d="M487.55,92.19c-1.38-0.34-2.99-0.71-4.85-1.08c-1.86-0.38-3.85-0.57-5.99-0.57c-0.96,0-2.12,0.09-3.46,0.26
			c-1.34,0.17-2.36,0.36-3.04,0.57v41.48h-15.38V81.45c2.75-0.96,6-1.87,9.75-2.73c3.75-0.86,7.93-1.29,12.54-1.29
			c0.83,0,1.82,0.05,2.99,0.15c1.17,0.1,2.34,0.24,3.51,0.41c1.17,0.17,2.34,0.38,3.51,0.62c1.17,0.24,2.17,0.53,2.99,0.88
			L487.55,92.19z"/>
	</g>
	<path class="st0" d="M115.97,93.23l34.43-50.58c1.4-2.05,0.86-4.85-1.19-6.24c-0.88-0.6-1.89-0.79-2.89-0.78
		c-0.11,0.01-0.37,0-0.38,0H39.72c-0.01,0-0.02,0-0.04,0c-2.45,0-4.43,1.98-4.43,4.43v106.3c0,2.45,1.98,4.43,4.43,4.43l0,0l0,0
		h106.3l0,0l0,0c0,0,0,0,0,0c0,0,0,0,0,0c1.89,0,2.48-0.72,2.66-0.88c1.79-1.58,2.42-4.11,1.08-6.11L115.97,93.23z M44.11,141.93
		V44.49h94.16l-31.44,46.19c-1.03,1.51-1.04,3.5-0.02,5.02l30.86,46.23H44.11z"/>
</g>
</svg>
