<?xml version="1.0" encoding="utf-8"?>
<!-- Generator: Adobe Illustrator 22.0.0, SVG Export Plug-In . SVG Version: 6.00 Build 0)  -->
<svg version="1.1" id="Layer_1" xmlns="http://www.w3.org/2000/svg"  x="0px" y="0px"
	 viewBox="0 0 841.9 595.3" style="enable-background:new 0 0 841.9 595.3;" xml:space="preserve">
<style type="text/css">
	.st0{fill:#30468F;}
	.st1{fill:#942327;}
	.st2{fill:#C22329;}
	.st3{fill:#03326C;}
</style>
<g>
	<polygon class="st0" points="402.2,281 406.5,281 406.5,293.8 406.5,293.8 411.6,286.4 416.6,286.4 410.5,294.5 417.3,302.7 
		412,302.7 406.5,295.6 406.5,295.6 406.5,302.7 402.2,302.7 	"/>
	<path class="st0" d="M424.6,286c4.8,0,8.5,3.3,8.5,8.6c0,4.7-3.1,8.4-8.5,8.4c-5.4,0-8.5-3.7-8.5-8.4
		C416.1,289.3,419.8,286,424.6,286 M424.6,299.8c3.3,0,4.1-2.9,4.1-5.6c0-2.5-1.3-4.8-4.1-4.8c-2.8,0-4.1,2.4-4.1,4.8
		C420.6,296.8,421.4,299.8,424.6,299.8"/>
	<path class="st0" d="M434.6,286.4h4v2.2h0.1c1.3-1.9,3.1-2.6,5.3-2.6c3.9,0,5.5,2.7,5.5,6.4v10.3h-4.2V294c0-2,0-4.7-2.8-4.7
		c-3.1,0-3.7,3.3-3.7,5.4v8h-4.2V286.4z"/>
	<polygon class="st0" points="451.5,281 455.7,281 455.7,293.8 455.8,293.8 460.8,286.4 465.8,286.4 459.8,294.5 466.6,302.7 
		461.2,302.7 455.8,295.6 455.7,295.6 455.7,302.7 451.5,302.7 	"/>
	<path class="st0" d="M479.5,301.8c-1.6,0.9-3.3,1.3-5.6,1.3c-5.4,0-8.5-3.1-8.5-8.4c0-4.7,2.5-8.6,7.6-8.6c6,0,7.7,4.1,7.7,9.8
		h-11.3c0.2,2.6,2,4.1,4.6,4.1c2.1,0,3.8-0.8,5.4-1.6V301.8z M476.7,292.9c-0.1-2.1-1.1-3.8-3.4-3.8c-2.4,0-3.6,1.6-3.8,3.8H476.7z"
		/>
	<path class="st0" d="M482.2,286.4h3.8v3.7h0.1c0.2-1.5,1.9-4.1,4.5-4.1c0.4,0,0.9,0,1.3,0.1v4.3c-0.4-0.2-1.1-0.3-1.9-0.3
		c-3.4,0-3.4,4.3-3.4,6.6v6h-4.2V286.4z"/>
	<polygon class="st0" points="350.1,319 389.2,319 369.6,294.5 389.2,270.1 350.1,270.1 	"/>
	<polygon class="st1" points="402.2,319 389.2,319 369.6,294.5 382.7,294.5 	"/>
	<polygon class="st2" points="402.2,270.1 389.2,270.1 369.6,294.5 376.1,302.7 	"/>
	<polyline class="st3" points="369.6,294.5 350.1,319 389.2,319 	"/>
</g>
</svg>
