<?xml version="1.0" encoding="utf-8"?>
<!-- Generator: Adobe Illustrator 22.0.1, SVG Export Plug-In . SVG Version: 6.00 Build 0)  -->
<svg version="1.1" id="Layer_1" xmlns="http://www.w3.org/2000/svg" xmlns:xlink="http://www.w3.org/1999/xlink" x="0px" y="0px"
	 viewBox="0 0 777.9 275.3" style="enable-background:new 0 0 777.9 275.3;" xml:space="preserve">
<style type="text/css">
	.st0{fill:#FFFFFF;}
</style>
<g>
	<polygon class="st0" points="290.6,66.5 312.9,66.5 312.9,133.7 313.2,133.7 339.8,94.9 366,94.9 334.1,137.7 370,180.5 
		341.8,180.5 313.2,143.5 312.9,143.5 312.9,180.5 290.6,180.5 	"/>
	<path class="st0" d="M408.3,92.9c25.4,0,44.8,17.1,44.8,45.4c0,24.6-16.4,44.2-44.8,44.2c-28.2,0-44.7-19.6-44.7-44.2
		C363.7,110,383.1,92.9,408.3,92.9 M408.3,165.2c17.1,0,21.6-15.3,21.6-29.6c0-13.1-7-25.4-21.6-25.4c-14.4,0-21.4,12.6-21.4,25.4
		C386.9,149.7,391.4,165.2,408.3,165.2"/>
	<path class="st0" d="M460.7,94.9h21.1v11.6h0.3c7-9.8,16.4-13.6,28.1-13.6c20.3,0,29.1,14.3,29.1,33.6v54H517v-45.7
		c0-10.5-0.2-24.6-14.4-24.6c-16.1,0-19.6,17.4-19.6,28.4v41.9h-22.3V94.9z"/>
	<polygon class="st0" points="549.3,66.5 571.6,66.5 571.6,133.7 571.9,133.7 598.5,94.9 624.7,94.9 592.8,137.7 628.7,180.5 
		600.5,180.5 571.9,143.5 571.6,143.5 571.6,180.5 549.3,180.5 	"/>
	<path class="st0" d="M696.5,175.7c-8.1,4.5-17.4,6.8-29.4,6.8c-28.2,0-44.7-16.3-44.7-44.4c0-24.7,13.1-45.2,39.7-45.2
		c31.7,0,40.7,21.8,40.7,51.7h-59.1c1,13.8,10.6,21.6,24.4,21.6c10.8,0,20.1-4,28.4-8.6L696.5,175.7L696.5,175.7z M681.5,129.3
		c-0.7-10.8-5.6-20.1-18.1-20.1s-18.8,8.6-19.8,20.1H681.5z"/>
	<path class="st0" d="M710.8,94.9h19.8v19.4h0.3c1-8,10.1-21.4,23.4-21.4c2.2,0,4.5,0,6.8,0.7V116c-2-1.2-6-1.8-10-1.8
		c-18.1,0-18.1,22.6-18.1,34.9v31.4h-22.2V94.9z"/>
	<path class="st0" d="M290.6,9.5h-68.4H85.3H16.8v256.6h68.4h136.9h68.4L187.9,137.8L290.6,9.5z M208.5,249H35.6V26.6h172.8
		l-89,111.2L208.5,249z"/>
</g>
</svg>
