<?xml version="1.0" encoding="utf-8"?>
<!-- Generator: Adobe Illustrator 17.1.0, SVG Export Plug-In . SVG Version: 6.00 Build 0)  -->
<!DOCTYPE svg PUBLIC "-//W3C//DTD SVG 1.1//EN" "http://www.w3.org/Graphics/SVG/1.1/DTD/svg11.dtd">
<svg version="1.1" id="Layer_1" xmlns="http://www.w3.org/2000/svg" xmlns:xlink="http://www.w3.org/1999/xlink" x="0px" y="0px"
	 viewBox="0 0 80.3 81.1" enable-background="new 0 0 80.3 81.1" xml:space="preserve">
<g>
	<g>
		<defs>
			<rect id="SVGID_1_" x="2.2" y="12.4" width="59.5" height="65.8"/>
		</defs>
		<clipPath id="SVGID_2_">
			<use xlink:href="#SVGID_1_"  overflow="visible"/>
		</clipPath>
		<path clip-path="url(#SVGID_2_)" d="M61.8,58.1c0-1.2-0.8-2-2-2c-3.2,0-6-2.8-6-6v-7.9C53.9,31,45,21.5,34,20.5v-6.1
			c0-1.2-0.8-2-2-2c-1.2,0-2,0.8-2,2v6.1c-11,1-19.9,10.5-19.9,21.7v7.9c0,3.2-2.8,6-6,6c-1.2,0-2,0.8-2,2c0,4.9,8.1,7.9,18,9.2
			c0.6,6.1,5.5,10.7,11.8,10.7s11.2-4.6,11.8-10.7C53.7,66,61.8,63,61.8,58.1L61.8,58.1z M32,74c-3.8,0-7-2.7-7.8-6.3
			c2.6,0.2,5.2,0.3,7.8,0.3s5.2-0.1,7.8-0.3C39,71.3,35.8,74,32,74L32,74z M32,64c-13.5,0-21.4-2.4-24.6-4.4c4-1.6,6.8-5.2,6.8-9.5
			v-7.9c0-9.9,7.9-17.9,17.9-17.9c9.9,0,17.9,7.9,17.9,17.9v7.9c0,4.4,2.8,8.3,6.8,9.5C53.5,61.7,45.5,64,32,64L32,64z M32,64"/>
	</g>
</g>
<g>
	<circle fill="#EC1B43" cx="54.6" cy="22.2" r="20.3"/>
	<path fill="#FFFFFF" d="M54.6,44.3c-12.2,0-22.2-9.9-22.2-22.2C32.4,9.9,42.3,0,54.6,0c12.2,0,22.2,9.9,22.2,22.2
		C76.7,34.4,66.8,44.3,54.6,44.3z M54.6,3.7c-10.2,0-18.5,8.3-18.5,18.5s8.3,18.5,18.5,18.5c10.2,0,18.5-8.3,18.5-18.5
		S64.7,3.7,54.6,3.7z"/>
</g>
</svg>
