<?xml version="1.0" encoding="utf-8"?>
<!-- Generator: Adobe Illustrator 17.1.0, SVG Export Plug-In . SVG Version: 6.00 Build 0)  -->
<!DOCTYPE svg PUBLIC "-//W3C//DTD SVG 1.1//EN" "http://www.w3.org/Graphics/SVG/1.1/DTD/svg11.dtd">
<svg version="1.1" id="Camada_1" xmlns="http://www.w3.org/2000/svg" xmlns:xlink="http://www.w3.org/1999/xlink" x="0px" y="0px"
	 viewBox="0 0 267.1 232.4" enable-background="new 0 0 267.1 232.4" xml:space="preserve">
<g>
	<g>
		<path fill="#FFFFFF" d="M243.8,232.4H27.4c-4.4,0-8-3.6-8-8V8c0-4.4,3.6-8,8-8h216.4c4.4,0,8,3.6,8,8v46.7l5.9,3.9
			c5.9,3.8,9.4,10.3,9.4,17.3v113.6c0,7-3.5,13.5-9.4,17.3l-5.9,3.9v13.7C251.8,228.9,248.2,232.4,243.8,232.4z M29.4,222.4h212.4
			v-17.1l10.5-6.8c3-2,4.9-5.3,4.9-9V75.9c0-3.6-1.8-7-4.9-9l-10.5-6.8V10H29.4V222.4z"/>
	</g>
	<g>
		<path fill="#FFFFFF" d="M48.4,78.9v-40c0-0.6-0.5-1-1.1-1H1.1c-0.6,0-1.1,0.4-1.1,1l0,40c0,0.6,0.5,1,1.1,1h46.1
			C47.9,79.9,48.4,79.4,48.4,78.9z"/>
		<path fill="#FFFFFF" d="M49.3,194v-22.5c0-0.3-0.5-0.6-1-0.6H6.1c-0.6,0-1,0.3-1,0.6V194c0,0.3,0.5,0.6,1,0.6h42.1
			C48.8,194.6,49.3,194.3,49.3,194z"/>
	</g>
	<g>
		<path fill="#FFFFFF" d="M183.9,77.6v77.3h-77.3V77.6H183.9 M191.9,67.6H98.6c-1.1,0-2,0.9-2,2v93.3c0,1.1,0.9,2,2,2h93.3
			c1.1,0,2-0.9,2-2V69.6C193.9,68.5,193,67.6,191.9,67.6L191.9,67.6z"/>
		<g>
			<path fill="#FFFFFF" d="M88.9,74.4h7.6v3.5h-7.6c-1,0-1.7-0.8-1.7-1.7v0C87.2,75.1,88,74.4,88.9,74.4z"/>
			<path fill="#FFFFFF" d="M88.9,83.3h7.6v3.5h-7.6c-1,0-1.7-0.8-1.7-1.7v0C87.2,84.1,88,83.3,88.9,83.3z"/>
			<path fill="#FFFFFF" d="M88.9,92.2h7.6v3.5h-7.6c-1,0-1.7-0.8-1.7-1.7v0C87.2,93,88,92.2,88.9,92.2z"/>
			<path fill="#FFFFFF" d="M88.9,101.1h7.6v3.5h-7.6c-1,0-1.7-0.8-1.7-1.7v0C87.2,101.9,88,101.1,88.9,101.1z"/>
			<path fill="#FFFFFF" d="M88.9,110h7.6v3.5h-7.6c-1,0-1.7-0.8-1.7-1.7v0C87.2,110.8,88,110,88.9,110z"/>
			<path fill="#FFFFFF" d="M88.9,118.9h7.6v3.5h-7.6c-1,0-1.7-0.8-1.7-1.7v0C87.2,119.7,88,118.9,88.9,118.9z"/>
			<path fill="#FFFFFF" d="M88.9,127.8h7.6v3.5h-7.6c-1,0-1.7-0.8-1.7-1.7v0C87.2,128.6,88,127.8,88.9,127.8z"/>
			<path fill="#FFFFFF" d="M88.9,136.8h7.6v3.5h-7.6c-1,0-1.7-0.8-1.7-1.7v0C87.2,137.5,88,136.8,88.9,136.8z"/>
			<path fill="#FFFFFF" d="M88.9,145.7h7.6v3.5h-7.6c-1,0-1.7-0.8-1.7-1.7v0C87.2,146.4,88,145.7,88.9,145.7z"/>
			<path fill="#FFFFFF" d="M88.9,154.6h7.6v3.5h-7.6c-1,0-1.7-0.8-1.7-1.7v0C87.2,155.4,88,154.6,88.9,154.6z"/>
		</g>
		<g>
			<path fill="#FFFFFF" d="M201.6,158.1h-7.6v-3.5h7.6c1,0,1.7,0.8,1.7,1.7v0C203.3,157.3,202.5,158.1,201.6,158.1z"/>
			<path fill="#FFFFFF" d="M201.6,149.2h-7.6v-3.5h7.6c1,0,1.7,0.8,1.7,1.7v0C203.3,148.4,202.5,149.2,201.6,149.2z"/>
			<path fill="#FFFFFF" d="M201.6,140.3h-7.6v-3.5h7.6c1,0,1.7,0.8,1.7,1.7v0C203.3,139.5,202.5,140.3,201.6,140.3z"/>
			<path fill="#FFFFFF" d="M201.6,131.3h-7.6v-3.5h7.6c1,0,1.7,0.8,1.7,1.7v0C203.3,130.6,202.5,131.3,201.6,131.3z"/>
			<path fill="#FFFFFF" d="M201.6,122.4h-7.6v-3.5h7.6c1,0,1.7,0.8,1.7,1.7v0C203.3,121.7,202.5,122.4,201.6,122.4z"/>
			<path fill="#FFFFFF" d="M201.6,113.5h-7.6V110h7.6c1,0,1.7,0.8,1.7,1.7v0C203.3,112.7,202.5,113.5,201.6,113.5z"/>
			<path fill="#FFFFFF" d="M201.6,104.6h-7.6v-3.5h7.6c1,0,1.7,0.8,1.7,1.7v0C203.3,103.8,202.5,104.6,201.6,104.6z"/>
			<path fill="#FFFFFF" d="M201.6,95.7h-7.6v-3.5h7.6c1,0,1.7,0.8,1.7,1.7v0C203.3,94.9,202.5,95.7,201.6,95.7z"/>
			<path fill="#FFFFFF" d="M201.6,86.8h-7.6v-3.5h7.6c1,0,1.7,0.8,1.7,1.7v0C203.3,86,202.5,86.8,201.6,86.8z"/>
			<path fill="#FFFFFF" d="M201.6,77.9h-7.6v-3.5h7.6c1,0,1.7,0.8,1.7,1.7v0C203.3,77.1,202.5,77.9,201.6,77.9z"/>
		</g>
	</g>
</g>
</svg>
