<?xml version="1.0" encoding="utf-8"?>
<!-- Generator: Adobe Illustrator 17.1.0, SVG Export Plug-In . SVG Version: 6.00 Build 0)  -->
<!DOCTYPE svg PUBLIC "-//W3C//DTD SVG 1.1//EN" "http://www.w3.org/Graphics/SVG/1.1/DTD/svg11.dtd">
<svg version="1.1" id="Camada_1" xmlns="http://www.w3.org/2000/svg" xmlns:xlink="http://www.w3.org/1999/xlink" x="0px" y="0px"
	 viewBox="0 0 263.5 232.4" enable-background="new 0 0 263.5 232.4" xml:space="preserve">
<g>
	<g>
		<path fill="#FFFFFF" d="M233.6,128.7v39c0,1.1-0.9,2-2,2H88.8c-1.1,0-2-0.9-2-2v-39c0-1.1,0.9-2,2-2l142.8,0
			C232.7,126.7,233.6,127.6,233.6,128.7z"/>
	</g>
	<g>
		<g>
			<rect x="91.3" y="171.7" fill="#FFFFFF" width="5.3" height="8.1"/>
		</g>
		<g>
			<rect x="100.2" y="171.7" fill="#FFFFFF" width="5.3" height="8.1"/>
		</g>
		<g>
			<rect x="109" y="171.7" fill="#FFFFFF" width="5.3" height="8.1"/>
		</g>
		<g>
			<rect x="117.8" y="171.7" fill="#FFFFFF" width="5.3" height="8.1"/>
		</g>
		<g>
			<rect x="126.7" y="171.7" fill="#FFFFFF" width="5.3" height="8.1"/>
		</g>
		<g>
			<rect x="135.5" y="171.7" fill="#FFFFFF" width="5.3" height="8.1"/>
		</g>
		<g>
			<rect x="144.3" y="171.7" fill="#FFFFFF" width="5.3" height="8.1"/>
		</g>
		<g>
			<rect x="153.1" y="171.7" fill="#FFFFFF" width="5.3" height="8.1"/>
		</g>
		<g>
			<rect x="162" y="171.7" fill="#FFFFFF" width="5.3" height="8.1"/>
		</g>
		<g>
			<rect x="170.8" y="171.7" fill="#FFFFFF" width="5.3" height="8.1"/>
		</g>
		<g>
			<rect x="179.6" y="171.7" fill="#FFFFFF" width="5.3" height="8.1"/>
		</g>
		<g>
			<rect x="188.5" y="171.7" fill="#FFFFFF" width="5.3" height="8.1"/>
		</g>
		<g>
			<rect x="197.3" y="171.7" fill="#FFFFFF" width="5.3" height="8.1"/>
		</g>
		<g>
			<rect x="206.1" y="171.7" fill="#FFFFFF" width="5.3" height="8.1"/>
		</g>
		<g>
			<rect x="215" y="171.7" fill="#FFFFFF" width="5.3" height="8.1"/>
		</g>
		<g>
			<rect x="223.8" y="171.7" fill="#FFFFFF" width="5.3" height="8.1"/>
		</g>
	</g>
	<g>
		<g>
			<rect x="91.3" y="116.6" fill="#FFFFFF" width="5.3" height="8.1"/>
		</g>
		<g>
			<rect x="100.2" y="116.6" fill="#FFFFFF" width="5.3" height="8.1"/>
		</g>
		<g>
			<rect x="109" y="116.6" fill="#FFFFFF" width="5.3" height="8.1"/>
		</g>
		<g>
			<rect x="117.8" y="116.6" fill="#FFFFFF" width="5.3" height="8.1"/>
		</g>
		<g>
			<rect x="126.7" y="116.6" fill="#FFFFFF" width="5.3" height="8.1"/>
		</g>
		<g>
			<rect x="135.5" y="116.6" fill="#FFFFFF" width="5.3" height="8.1"/>
		</g>
		<g>
			<rect x="144.3" y="116.6" fill="#FFFFFF" width="5.3" height="8.1"/>
		</g>
		<g>
			<rect x="153.1" y="116.6" fill="#FFFFFF" width="5.3" height="8.1"/>
		</g>
		<g>
			<rect x="162" y="116.6" fill="#FFFFFF" width="5.3" height="8.1"/>
		</g>
		<g>
			<rect x="170.8" y="116.6" fill="#FFFFFF" width="5.3" height="8.1"/>
		</g>
		<g>
			<rect x="179.6" y="116.6" fill="#FFFFFF" width="5.3" height="8.1"/>
		</g>
		<g>
			<rect x="188.5" y="116.6" fill="#FFFFFF" width="5.3" height="8.1"/>
		</g>
		<g>
			<rect x="197.3" y="116.6" fill="#FFFFFF" width="5.3" height="8.1"/>
		</g>
		<g>
			<rect x="206.1" y="116.6" fill="#FFFFFF" width="5.3" height="8.1"/>
		</g>
		<g>
			<rect x="215" y="116.6" fill="#FFFFFF" width="5.3" height="8.1"/>
		</g>
		<g>
			<rect x="223.8" y="116.6" fill="#FFFFFF" width="5.3" height="8.1"/>
		</g>
	</g>
	<g>
		<path fill="#FFFFFF" d="M240.1,232.4H23.7c-4.4,0-8-3.6-8-8v-29h19.2v-13.6H15.7v-101h15.7v-32H15.7V8c0-4.4,3.6-8,8-8h216.4
			c4.4,0,8,3.6,8,8v46.7l5.9,3.9c5.9,3.8,9.4,10.3,9.4,17.3v113.6c0,7-3.5,13.5-9.4,17.3l-5.9,3.9v13.7
			C248.1,228.9,244.6,232.4,240.1,232.4z M25.7,222.4h212.4v-17.1l10.5-6.8c3-2,4.9-5.3,4.9-9V75.9c0-3.6-1.8-7-4.9-9l-10.5-6.8V10
			H25.7v28.8h10c3.2,0,5.7,2.7,5.7,6v40c0,3.3-2.6,6-5.7,6h-10v81h13.6c3.1,0,5.7,2.5,5.7,5.6v22.5c0,3.1-2.5,5.6-5.7,5.6H25.7
			V222.4z"/>
	</g>
	<g>
		<path fill="#FFFFFF" d="M35.7,90.8H5.7c-3.2,0-5.7-2.7-5.7-6v-40c0-3.3,2.6-6,5.7-6h29.9c3.2,0,5.7,2.7,5.7,6v40
			C41.4,88.1,38.8,90.8,35.7,90.8z M10,80.8h21.4v-32H10V80.8z"/>
	</g>
	<g>
		<path fill="#FFFFFF" d="M39.2,205.5H11.9c-3.1,0-5.7-2.5-5.7-5.6v-22.5c0-3.1,2.5-5.6,5.7-5.6h27.3c3.1,0,5.7,2.5,5.7,5.6v22.5
			C44.9,203,42.4,205.5,39.2,205.5z M16.3,195.5h18.7v-13.6H16.3V195.5z"/>
	</g>
</g>
</svg>
