<?xml version="1.0" encoding="utf-8"?>
<!-- Generator: Adobe Illustrator 17.1.0, SVG Export Plug-In . SVG Version: 6.00 Build 0)  -->
<!DOCTYPE svg PUBLIC "-//W3C//DTD SVG 1.1//EN" "http://www.w3.org/Graphics/SVG/1.1/DTD/svg11.dtd">
<svg version="1.1" id="Layer_1" xmlns="http://www.w3.org/2000/svg" xmlns:xlink="http://www.w3.org/1999/xlink" x="0px" y="0px"
	 viewBox="0 0 100 100" enable-background="new 0 0 100 100" xml:space="preserve">
<g>
	<path fill="#FFFFFF" d="M66.5,14.7c-3.3,0-6.5,0.4-9.5,1.2c-5-2-10.6-3.1-16.5-3.1c-21.5,0-39,14.6-39,32.5
		c0,9.5,4.9,18.4,13.5,24.6v17.2l17.9-10c2.5,0.4,5.1,0.6,7.6,0.6c10.6,0,20.3-3.6,27.3-9.4c1.6-0.1,3.2-0.2,4.8-0.5l15.1,8.4V61.8
		c7-5.1,10.9-12.4,10.9-20.2C98.6,26.8,84.2,14.7,66.5,14.7L66.5,14.7z M40.4,72.6c-2.5,0-5.1-0.2-7.6-0.7l-0.9-0.2l-11.7,6.5V67.2
		L19,66.4C11.2,61.2,6.7,53.5,6.7,45.3c0-15,15.1-27.3,33.7-27.3c3,0,5.9,0.3,8.7,0.9c-8.9,4.8-14.8,13.1-14.8,22.6
		c0,12.8,10.8,23.6,25.1,26.3C54,70.9,47.5,72.6,40.4,72.6L40.4,72.6z M83.6,58.3l-1.2,0.8v8.4l-8.9-5l0,0l-0.9,0.2
		c-2,0.4-4.1,0.6-6.1,0.6c-0.2,0-0.4,0-0.6,0C51.3,63,39.6,53.4,39.6,41.6c0-9.2,7.1-17,17.1-20.2c2.5-0.8,5.3-1.3,8.1-1.5
		c0.6,0,1.1-0.1,1.7-0.1c14.8,0,26.9,9.7,26.9,21.7C93.4,48.1,89.8,54.1,83.6,58.3L83.6,58.3z M83.6,58.3"/>
</g>
</svg>
