<?xml version="1.0" encoding="utf-8"?>
<!-- Generator: Adobe Illustrator 17.1.0, SVG Export Plug-In . SVG Version: 6.00 Build 0)  -->
<!DOCTYPE svg PUBLIC "-//W3C//DTD SVG 1.1//EN" "http://www.w3.org/Graphics/SVG/1.1/DTD/svg11.dtd">
<svg version="1.1" id="Layer_1" xmlns="http://www.w3.org/2000/svg" xmlns:xlink="http://www.w3.org/1999/xlink" x="0px" y="0px"
	 viewBox="0 0 100 100" enable-background="new 0 0 100 100" xml:space="preserve">
<g>
	<path fill="#FFFFFF" d="M70.5,13c0.8,0,1.4-0.7,1.4-1.4V2.9c0-0.8-0.7-1.4-1.4-1.4c-0.8,0-1.4,0.7-1.4,1.4v8.7
		C69,12.4,69.7,13,70.5,13L70.5,13z M70.5,13"/>
	<path fill="#FFFFFF" d="M62.6,13c0.8,0,1.4-0.7,1.4-1.4V2.9c0-0.8-0.7-1.4-1.4-1.4s-1.4,0.7-1.4,1.4v8.7C61.1,12.4,61.8,13,62.6,13
		L62.6,13z M62.6,13"/>
	<path fill="#FFFFFF" d="M54.5,13c0.8,0,1.4-0.7,1.4-1.4V2.9c0-0.8-0.6-1.4-1.4-1.4s-1.4,0.7-1.4,1.4v8.7C53.1,12.4,53.7,13,54.5,13
		L54.5,13z M54.5,13"/>
	<path fill="#FFFFFF" d="M46.6,13c0.8,0,1.4-0.7,1.4-1.4V2.9c0-0.8-0.6-1.4-1.4-1.4s-1.4,0.7-1.4,1.4v8.7C45.2,12.4,45.8,13,46.6,13
		L46.6,13z M46.6,13"/>
	<path fill="#FFFFFF" d="M39.4,13c0.8,0,1.4-0.7,1.4-1.4V2.9c0-0.8-0.6-1.4-1.4-1.4c-0.8,0-1.5,0.7-1.5,1.4v8.7
		C37.9,12.4,38.6,13,39.4,13L39.4,13z M39.4,13"/>
	<path fill="#FFFFFF" d="M31.5,13c0.8,0,1.4-0.7,1.4-1.4V2.9c0-0.8-0.6-1.4-1.4-1.4c-0.8,0-1.4,0.7-1.4,1.4v8.7
		C30,12.4,30.7,13,31.5,13L31.5,13z M31.5,13"/>
	<path fill="#FFFFFF" d="M11.6,28H2.9c-0.8,0-1.4,0.6-1.4,1.4s0.6,1.4,1.4,1.4h8.7c0.8,0,1.5-0.6,1.5-1.4S12.4,28,11.6,28L11.6,28z
		 M11.6,28"/>
	<path fill="#FFFFFF" d="M11.6,35.9H2.9c-0.8,0-1.4,0.6-1.4,1.4c0,0.8,0.6,1.4,1.4,1.4h8.7c0.8,0,1.5-0.6,1.5-1.4
		C13,36.5,12.4,35.9,11.6,35.9L11.6,35.9z M11.6,35.9"/>
	<path fill="#FFFFFF" d="M11.6,43.9H2.9c-0.8,0-1.4,0.6-1.4,1.4c0,0.8,0.6,1.4,1.4,1.4h8.7c0.8,0,1.5-0.6,1.5-1.4
		C13,44.5,12.4,43.9,11.6,43.9L11.6,43.9z M11.6,43.9"/>
	<path fill="#FFFFFF" d="M11.6,51.8H2.9c-0.8,0-1.4,0.7-1.4,1.4c0,0.8,0.6,1.4,1.4,1.4h8.7c0.8,0,1.5-0.7,1.5-1.4
		C13,52.4,12.4,51.8,11.6,51.8L11.6,51.8z M11.6,51.8"/>
	<path fill="#FFFFFF" d="M11.6,59H2.9c-0.8,0-1.4,0.7-1.4,1.4c0,0.8,0.6,1.5,1.4,1.5h8.7c0.8,0,1.5-0.7,1.5-1.5
		C13,59.7,12.4,59,11.6,59L11.6,59z M11.6,59"/>
	<path fill="#FFFFFF" d="M11.6,66.9H2.9c-0.8,0-1.4,0.7-1.4,1.4c0,0.8,0.6,1.4,1.4,1.4h8.7c0.8,0,1.5-0.7,1.5-1.4
		C13,67.6,12.4,66.9,11.6,66.9L11.6,66.9z M11.6,66.9"/>
	<path fill="#FFFFFF" d="M70.5,87c-0.8,0-1.4,0.6-1.4,1.4v8.7c0,0.8,0.7,1.4,1.4,1.4c0.8,0,1.4-0.6,1.4-1.4v-8.7
		C71.9,87.6,71.2,87,70.5,87L70.5,87z M70.5,87"/>
	<path fill="#FFFFFF" d="M62.6,87c-0.8,0-1.4,0.6-1.4,1.4v8.7c0,0.8,0.6,1.4,1.4,1.4s1.4-0.6,1.4-1.4v-8.7C64,87.6,63.4,87,62.6,87
		L62.6,87z M62.6,87"/>
	<path fill="#FFFFFF" d="M54.5,87c-0.8,0-1.4,0.6-1.4,1.4v8.7c0,0.8,0.6,1.4,1.4,1.4c0.8,0,1.4-0.6,1.4-1.4v-8.7
		C56,87.6,55.3,87,54.5,87L54.5,87z M54.5,87"/>
	<path fill="#FFFFFF" d="M46.6,87c-0.8,0-1.4,0.6-1.4,1.4v8.7c0,0.8,0.6,1.4,1.4,1.4c0.8,0,1.4-0.6,1.4-1.4v-8.7
		C48.1,87.6,47.4,87,46.6,87L46.6,87z M46.6,87"/>
	<path fill="#FFFFFF" d="M39.4,87c-0.8,0-1.5,0.6-1.5,1.4v8.7c0,0.8,0.6,1.4,1.5,1.4c0.8,0,1.4-0.6,1.4-1.4v-8.7
		C40.8,87.6,40.2,87,39.4,87L39.4,87z M39.4,87"/>
	<path fill="#FFFFFF" d="M31.5,87c-0.8,0-1.4,0.6-1.4,1.4v8.7c0,0.8,0.6,1.4,1.4,1.4c0.8,0,1.4-0.6,1.4-1.4v-8.7
		C32.9,87.6,32.3,87,31.5,87L31.5,87z M31.5,87"/>
	<path fill="#FFFFFF" d="M74.5,16.8h-47c-4.9,0-9,4-9,9v47c0,4.9,4,9,9,9h47c4.9,0,9-4,9-9v-47C83.4,20.8,79.4,16.8,74.5,16.8
		L74.5,16.8z M32,31.1c-1.6,0-2.9-1.3-2.9-2.9s1.3-2.9,2.9-2.9c1.6,0,2.9,1.3,2.9,2.9S33.6,31.1,32,31.1L32,31.1z M66.1,63.5H36.2
		V33.2h29.9V63.5z M66.1,63.5"/>
	<path fill="#FFFFFF" d="M88.4,30.8h8.7c0.8,0,1.4-0.6,1.4-1.4S97.9,28,97.1,28h-8.7c-0.8,0-1.4,0.6-1.4,1.4S87.6,30.8,88.4,30.8
		L88.4,30.8z M88.4,30.8"/>
	<path fill="#FFFFFF" d="M97.1,35.9h-8.7c-0.8,0-1.4,0.6-1.4,1.4c0,0.8,0.6,1.4,1.4,1.4h8.7c0.8,0,1.4-0.6,1.4-1.4
		C98.5,36.5,97.9,35.9,97.1,35.9L97.1,35.9z M97.1,35.9"/>
	<path fill="#FFFFFF" d="M97.1,43.9h-8.7c-0.8,0-1.4,0.6-1.4,1.4c0,0.8,0.6,1.4,1.4,1.4h8.7c0.8,0,1.4-0.6,1.4-1.4
		C98.5,44.5,97.9,43.9,97.1,43.9L97.1,43.9z M97.1,43.9"/>
	<path fill="#FFFFFF" d="M97.1,51.8h-8.7c-0.8,0-1.4,0.7-1.4,1.4c0,0.8,0.6,1.4,1.4,1.4h8.7c0.8,0,1.4-0.7,1.4-1.4
		C98.5,52.4,97.9,51.8,97.1,51.8L97.1,51.8z M97.1,51.8"/>
	<path fill="#FFFFFF" d="M97.1,59h-8.7c-0.8,0-1.4,0.7-1.4,1.4c0,0.8,0.6,1.5,1.4,1.5h8.7c0.8,0,1.4-0.7,1.4-1.5
		C98.5,59.7,97.9,59,97.1,59L97.1,59z M97.1,59"/>
	<path fill="#FFFFFF" d="M97.1,66.9h-8.7c-0.8,0-1.4,0.7-1.4,1.4c0,0.8,0.6,1.4,1.4,1.4h8.7c0.8,0,1.4-0.7,1.4-1.4
		C98.5,67.6,97.9,66.9,97.1,66.9L97.1,66.9z M97.1,66.9"/>
</g>
</svg>
