<?xml version="1.0" encoding="utf-8"?>
<!-- Generator: Adobe Illustrator 17.1.0, SVG Export Plug-In . SVG Version: 6.00 Build 0)  -->
<!DOCTYPE svg PUBLIC "-//W3C//DTD SVG 1.1//EN" "http://www.w3.org/Graphics/SVG/1.1/DTD/svg11.dtd">
<svg version="1.1" id="Layer_1" xmlns="http://www.w3.org/2000/svg" xmlns:xlink="http://www.w3.org/1999/xlink" x="0px" y="0px"
	 viewBox="0 0 100 100" enable-background="new 0 0 100 100" xml:space="preserve">
<g>
	<path fill="#FFFFFF" d="M50,1.9C23.4,1.9,1.8,23.6,1.8,50.2S23.4,98.4,50,98.4s48.2-21.6,48.2-48.2S76.7,1.9,50,1.9L50,1.9z
		 M50,89.6c-21.8,0-39.5-17.7-39.5-39.5S28.3,10.7,50,10.7s39.5,17.7,39.5,39.5S71.8,89.6,50,89.6L50,89.6z M50,89.6"/>
	<path fill="#FFFFFF" d="M50,69.2c-3.2,0-5.8,2.6-5.8,5.8c0,3.2,2.6,5.9,5.8,5.9c3.2,0,5.8-2.6,5.8-5.9C55.9,71.8,53.3,69.2,50,69.2
		L50,69.2z M50,69.2"/>
	<path fill="#FFFFFF" d="M50,19.5c-8.9,0-16.1,7.2-16.1,16.1c0,2.4,2,4.4,4.4,4.4c2.4,0,4.4-2,4.4-4.4c0-4,3.3-7.3,7.3-7.3
		c4,0,7.3,3.3,7.3,7.3c0,4-3.3,7.3-7.3,7.3c-2.4,0-4.4,2-4.4,4.4V56c0,2.4,2,4.4,4.4,4.4c2.4,0,4.4-2,4.4-4.4v-5
		c6.7-1.9,11.7-8.1,11.7-15.5C66.1,26.7,58.9,19.5,50,19.5L50,19.5z M50,19.5"/>
</g>
</svg>
