<?xml version="1.0" encoding="utf-8"?>
<!-- Generator: Adobe Illustrator 17.1.0, SVG Export Plug-In . SVG Version: 6.00 Build 0)  -->
<!DOCTYPE svg PUBLIC "-//W3C//DTD SVG 1.1//EN" "http://www.w3.org/Graphics/SVG/1.1/DTD/svg11.dtd">
<svg version="1.1" id="Layer_1" xmlns="http://www.w3.org/2000/svg" xmlns:xlink="http://www.w3.org/1999/xlink" x="0px" y="0px"
	 viewBox="0 0 100 100" enable-background="new 0 0 100 100" xml:space="preserve">
<path d="M-702,751c225.6,0,451.2,0.1,676.8,0.1c244.1,0,488.2-0.1,732.3-0.1c30.3,0,60.6,0,91,0c0,33.3,0,66.7,0,100
	c-500,0-1000,0-1500,0C-702,817.7-702,784.3-702,751z M-558.2,791.6c0-3.6,0-6.9,0-10.2c-8.5,1.4-6.2,9.6-9.9,13.8
	c-0.4,0.5,0.3,2.1,0.7,3.1c0.7,1.8,1.9,3.4,2.2,5.2c0.4,2.8,0,5.7,0.1,8.5c0.5,8,5,11.3,13.4,9.6c0-1.7,0-3.5,0-5.2
	c-6.9-2.3-8.1-6.2-5.7-17.3c3.1,0,6.1,0,9.5,0c0,4.8-0.2,9.1,0,13.4c0.5,8,5.7,11.3,13.4,8.7c0-1.6,0-3.3,0-4.8
	c-7-2.2-8.7-7.4-5.9-17.5c7.5-0.8,7.5-0.8,6.1-6.9c-2.2-0.2-4.4-0.4-7.1-0.6c0-3.6,0-6.8,0-10c-6.2,0.9-7.2,5-6.7,10.1
	C-551.2,791.6-554.2,791.6-558.2,791.6z M-598.4,822c0-7.2,0.3-13.9-0.1-20.5c-0.4-6.8-5.4-10.6-12.2-10.3c-1.5,0.1-2.9,0.3-4.7,0.5
	c-0.2-3.7-0.3-7.1-0.5-10.6c-2.4,0-4.4,0-6.5,0c0,13.8,0,27.2,0,40.8c2.3,0,4.2,0,6.7,0c0-6.7,0.2-13.1-0.1-19.6
	c-0.1-3.6,1.6-4.7,4.8-4.6c4,0.1,5.6,2.3,5.6,6.1c0,5.9,0,11.9,0,18.1C-602.8,822-600.9,822-598.4,822z M-387.8,781.1
	c0,14,0,27.4,0,40.9c2.3,0,4.4,0,6.5,0c0.3-3.7,0.6-7.1,1-11.1c6.3,4.2,7.3,14.5,17.6,10.7c-4.1-5.4-8-10.5-11.9-15.8
	c3.8-4.5,7.5-8.8,11.2-13.1c-9.8-3.9-11.6,5.8-17.7,9.5c0-7.4,0-14.1,0-20.9c-1.3-0.1-2.1-0.3-2.9-0.3
	C-385.2,780.9-386.4,781-387.8,781.1z M-508,816.7c-4-2.7-4-2.7-8.3-0.9s-7.4-0.3-7.2-5.4c2.6,0,5.2,0,7.9,0s5.5,0,8.7,0
	c0-3,0-5.1,0-7.2c-0.1-7.4-4.4-11.7-11.8-11.8c-7.7-0.1-12.2,4.1-12.3,11.8c0,2.7,0,5.3,0,8c0.1,6.6,2.5,10.1,8,11.6
	C-516.9,824.3-511.5,822.3-508,816.7z M-595,792.2c0,7.4-0.2,14.5,0.1,21.6c0.1,3.9,2.3,7.7,6.2,8.1c5.3,0.6,10.7-0.3,16-0.8
	c0.7-0.1,1.7-1.6,1.8-2.5c0.1-8.8,0.1-17.5,0.1-26.4c-2.6,0-4.6,0-7.1,0c0,6.9-0.2,13.6,0.1,20.2c0.2,4.1-1.8,4.9-5.1,4.5
	s-5-2.2-5-5.6c0.1-6.3,0-12.5,0-19.1C-590.5,792.2-592.4,792.2-595,792.2z M-649.4,820.6c6.4,2.8,12.5,3.7,18.7,1
	c3.7-1.6,5.5-4.7,5.3-8.8c-0.1-4.2-2.4-6.8-6.4-7.9c-2.1-0.6-4.3-0.8-6.3-1.5c-1.1-0.4-1.8-1.7-2.7-2.5c1-0.9,2.1-2.5,3.1-2.5
	c3.1,0,6.1,0.7,9.5,1.1c0.6-1.7,1.3-3.5,2.1-5.7c-5.7-2.4-11.1-3.5-16.7-0.9c-3.8,1.8-5.3,4.9-5.1,8.9c0.2,3.9,2.3,6.5,6.2,7.5
	c2.1,0.5,4.3,0.7,6.3,1.5c1.1,0.5,1.9,1.9,2.8,3c-1.1,0.8-2.2,2.3-3.4,2.3c-3.6,0.1-7.2-0.4-11.2-0.7
	C-647.7,816.8-648.4,818.5-649.4,820.6z M-464.8,793.7c-5.9-2.5-11.3-3.5-16.8-0.9c-3.8,1.8-5.4,4.9-5.1,8.9
	c0.3,3.9,2.4,6.5,6.3,7.4c2.1,0.5,4.3,0.7,6.3,1.5c1.2,0.5,1.9,1.9,2.8,2.9c-1.1,0.8-2.2,2.3-3.3,2.4c-3.6,0.1-7.2-0.4-11.3-0.7
	c-0.6,1.5-1.4,3.3-2.2,5.3c6.1,2.6,11.7,3.4,17.5,1.4c4.2-1.5,6.6-4.5,6.5-9s-2.7-7.4-7.1-8.4c-1.5-0.3-3.1-0.3-4.3-0.9
	c-1.5-0.7-2.7-2-4-3.1c1.6-0.9,3.2-2.4,4.8-2.4c2.5-0.1,5.1,0.8,7.8,1.3C-466.2,797.6-465.6,796-464.8,793.7z M-391,799.4
	c-2.6-6.4-7.5-9-14.4-7.8c-6.4,1.1-9.2,4.5-9.3,11.5c0,3-0.1,6,0,9c0.2,6.2,3.5,10,9.5,10.9c6.9,1.1,12.1-1.8,14.2-8.3
	c-1.8-0.7-3.6-1.4-5.3-2.1c0,0.6,0.1,1.1,0.1,1.7c-3,0.5-6.3,2-8.9,1.2c-1.5-0.5-2-4.6-2.7-7.1c-0.4-1.4-0.1-3,0-4.5
	c0.3-5.1,4.8-7.8,8.5-4.5C-396.2,802.1-394,801.5-391,799.4z M-445.9,816.7c-6.7-2.5-8-6.5-5.7-17.6c2-0.2,4.1-0.5,6.3-0.7
	c0-2.2,0-4.3,0-6.2c-2.5-0.2-4.6-0.4-6.7-0.5c-0.2-3.6-0.4-6.8-0.6-10.3c-6.1,2.6-6,2.6-6.6,7.8c-0.1,1-1.5,1.8-1.7,2.8
	c-0.5,2-1.2,5.9-1,6c3.8,1.1,2.7,4.1,2.7,6.5c0.1,2.5,0,5,0,7.5c0.2,8.3,5.1,11.9,13.3,9.6C-445.9,819.9-445.9,818.2-445.9,816.7z
	 M-488.1,792.2c-7.4-2.1-14.4,1.1-14.9,7.3c-0.6,7.4-0.1,14.9-0.1,22.4c2.3,0,4.2,0,6.5,0c0-4.9,0-9.3,0-13.8c0-8.9,0-8.9,8.6-10.6
	C-488.1,795.7-488.1,793.9-488.1,792.2z M-427.3,792.2c-13.2-1.1-17.2,3.3-14.8,15.6c2,0,4.1,0,6.6,0c-2-7.5,1.6-9.9,8.2-8.8
	C-427.3,796.4-427.3,794.4-427.3,792.2z M-423.6,805.1c-1.2,9.2-1.2,9.2-8.9,10.9c0,2,0,4,0,6.2c3,0,5.7,0.3,8.3-0.1
	c5.4-0.7,8.5-6.5,6.8-13.3C-417.9,807.4-421,806.6-423.6,805.1z M611.3,794.6c0.3,0,0.5,0,0.8-0.1c0-3.7,0-7.4,0-11.2
	c-0.5-0.1-0.9-0.1-1.4-0.2c-1,2.7-2,5.4-3.1,8.3c-1.3-3-2.4-5.7-3.6-8.4c-0.4,0.1-0.8,0.2-1.2,0.3c0,3.7,0,7.5,0,11.2
	c0.3,0,0.6,0,0.9,0c0.2-1.7,0.3-3.5,0.6-5.9c1.1,2.6,1.9,4.5,3.2,7.5c1.3-3.1,2.1-5,3.2-7.6C611,791.1,611.1,792.9,611.3,794.6z
	 M622.9,794.5c-1.2-3.8-2.4-7.7-3.6-11.5c-0.6,0-1.1,0-1.7,0c-1.2,3.8-2.4,7.6-3.7,11.5C617.3,790.4,619.7,791.1,622.9,794.5z
	 M641,794.9c-2.2-1.3-3.5-2-4.8-2.7c1.1-1.2,2.3-2.3,3.1-3.2c-1-0.7-2.1-1.5-3.1-2.3c1.3-1,2.6-2,4.3-3.3c-2.1,0-3.9,0-5.9,0
	c0,4,0,7.7,0,11.5C636.7,794.9,638.4,794.9,641,794.9z M650.2,783.5c0,4.1,0,7.8,0,11.4c6.6,0.4,7.9-0.7,7.8-6.1
	C657.8,783.9,656.3,782.8,650.2,783.5z M630.7,788.5c-0.4,0.3-0.8,0.6-1.1,0.9c0.3,1,1,2.1,0.8,3c-0.1,0.5-1.8,1.3-2.4,1.1
	c-0.8-0.4-1.8-1.5-1.9-2.4c-0.1-1.9-0.2-4.2,0.8-5.6c0.6-0.8,3.2-0.1,5-0.1c0.1-0.4,0.1-0.8,0.2-1.2c-1.8-0.2-4.7-1.3-5.3-0.6
	c-1.5,1.8-2.4,4.4-2.5,6.8c-0.1,1.5,1.6,4.4,2.6,4.4c1.8,0.1,3.8-1.4,5.4-2.5C632.4,792,631.2,789.8,630.7,788.5z M-352.3,794.6
	c-2.3-1.8-3.6-3.6-4.8-3.5c-1.3,0.1-2.5,1.9-3.8,3c1.1,1.2,2,3.2,3.3,3.5C-356.4,797.9-354.8,796.2-352.3,794.6z M666,791.3
	c2.1,0.8,4,1.5,5.8,2.1c0-2.8,0-6.1,0-9.4c-0.3,0-0.7-0.1-1-0.1C669.2,786.4,667.6,788.9,666,791.3z M703.5,815.3
	c-1.7-1.3-2.7-2.5-3.9-2.7c-0.7-0.1-2.6,1.6-2.5,2c0.5,1.4,1.6,2.5,2.5,3.8C700.7,817.5,701.8,816.7,703.5,815.3z M715.8,790.5
	c0.3-0.4,0.5-0.8,0.8-1.3c-1.5-1.4-2.9-2.7-4.4-4.1c-0.2,0.2-0.5,0.5-0.7,0.7C712.9,787.4,714.4,788.9,715.8,790.5z"/>
<path d="M-702-682c1.7,0.1,4.6,0.8,4.9,0.2c2.2-4.2,5.9-3.2,9.2-3.2c68.3,0,136.6,0.1,204.9,0.1c3.5,0,5.7,1,7.8,4
	c14.7,21.7,29.5,43.2,44.4,64.7c1.6,2.2,1.6,3.6-0.1,6c-14.6,21.1-29.1,42.3-43.5,63.5c-2.3,3.4-4.8,5-9.2,5
	c-71.1-0.2-142.3-0.1-213.4-0.1c-1.7,0-3.3-0.2-5-0.3c0-38.7,0-77.3,0-116c2.4,0.6,4.8,1.1,7.2,1.9c3.7,1.2,6.4,0.4,8.5-4
	c-5.4-1-10.5-2-15.6-2.9C-702-669.3-702-675.7-702-682z M-479.6-583.2c0.5-0.1,1-0.2,1.6-0.3c0-2.4,0-4.7,0-7.2
	c2.3-0.2,4.4-0.2,6.6-0.6c0.7-0.1,1.3-1.2,1.9-1.9c-0.6-0.5-1.2-1.5-1.7-1.4c-5,0.5-4.8-3.1-5.7-6.4c-1.1-4-2.9-7.7-4.5-12
	c0,0,0.6-0.6,1.2-1.1c4.3-3.3,4.5-7.9,3.5-12.6c-0.9-4.5-4.6-6.6-8.5-7.3c-4.2-0.7-8.6-0.4-12.9-0.4c-3.4,0-4.6,1.9-4.5,5.1
	c0.1,10.8,0.1,21.6,0,32.5c0,2.4,0.4,4.3,3.4,4.4c3.1,0.1,3.5-1.7,3.5-4.2c-0.1-4.3,0-8.5,0-12.7c8-0.9,9.7-0.2,11.6,6.2
	c1.6,5.1,2.2,10.5,3.3,15.8C-480.6-585.9-480-584.6-479.6-583.2z M-546.4-612.1c-0.5,5.3,1.2,10.7,5.5,15.1
	c10,10.2,26.7,6.2,31.2-7.4c5.3-16.2-3-30.6-17.6-30.6C-538.6-635-546.4-626-546.4-612.1z M-639.3-592.3c7.3,0,13.8,0.2,20.3-0.1
	c1.3-0.1,2.5-1.8,3.8-2.7c-1.3-0.9-2.5-2.5-3.9-2.6c-4.4-0.3-8.9-0.1-13.4-0.1c0-4.7,0-8.8,0-13.2c3.7,0,7-0.2,10.3,0
	c4.5,0.3,5.7-1.5,3.9-6.1c-4.7,0-9.4,0-14.3,0c0-4.1,0-7.7,0-11.6c4.5,0,8.6,0.2,12.7-0.1c1.3-0.1,2.5-1.7,3.7-2.7
	c-1.1-0.9-2.2-2.5-3.4-2.6c-5.5-0.3-11-0.3-16.5,0c-1.1,0.1-3.1,1.7-3.1,2.7C-639.4-618.7-639.3-605.9-639.3-592.3z M-677.7-633.3
	c4.2,13,8.3,25.8,12.6,38.4c0.4,1.2,2.8,2.5,4.1,2.4c1.5-0.1,3.7-1.5,4.2-2.8c4.5-11.7,8.7-23.6,13-35.4c1.1-2.9-0.4-4.2-2.7-3.4
	c-1.8,0.6-3.8,2.4-4.5,4.2c-3.4,9.2-6.4,18.5-9.8,28.5c-1.7-5.2-3.3-9.7-4.7-14.3s-2.9-9.2-4.1-13.8
	C-670.5-633.9-672.7-635.4-677.7-633.3z M-587.7-629c1.2,0.1,2.4,0.5,3.5,0.3c1.4-0.3,2.6-1.2,3.9-1.8c-1-1.2-1.8-3.1-3-3.6
	c-8.7-3.1-19.8,0.6-24.9,7.9c-5.6,8-5.3,20.3,0.6,27.5c5.7,6.9,16,9.1,25.5,5.7c0.9-0.3,2-2.2,1.7-2.8c-0.5-1.1-1.8-2.1-3-2.4
	c-1.2-0.3-2.6,0.5-3.9,0.6c-6,0.5-11.9,0.1-15.4-5.7c-3.9-6.3-3.8-13-0.1-19.4C-599.5-628.4-593.9-629.6-587.7-629z M-558.2-628.7
	c3.7,0,6.5,0.2,9.2-0.1c1.1-0.1,2-1.5,3-2.3c-1-1.1-1.9-3-2.9-3c-8.5-0.2-17-0.3-25.5,0c-1.1,0-2.2,1.8-3.3,2.8
	c1.1,0.9,2.1,2.4,3.3,2.6c2.7,0.4,5.6,0.1,8.8,0.1c0.2,2.3,0.5,4.2,0.5,6.2c0.1,8.7,0.1,17.3,0,26c-0.1,3.7,1.8,5,4.9,3.8
	c1-0.4,1.8-2.8,1.9-4.4C-558.1-607.4-558.2-617.7-558.2-628.7z M-461.1-581.3c-0.9-0.1-1.7-0.3-2.6-0.4c-0.7,1.9-0.8,4.3-2.1,5.5
	c-1.4,1.3-3.9,1.3-5.7,2.2c-0.5,0.2-0.9,1.5-0.8,2.1s1.2,1.5,1.7,1.4c2.8-0.7,6.4-0.8,8-2.7C-461.1-574.9-461.6-578.5-461.1-581.3z"
	/>
<path fill="#FFFFFF" d="M-702-663c5.1,1,10.2,1.9,15.6,2.9c-2.1,4.4-4.8,5.2-8.5,4c-2.3-0.8-4.8-1.3-7.2-1.9
	C-702-659.7-702-661.3-702-663z"/>
<path fill="#FFFFFF" d="M-558.2,791.6c4,0,6.9,0,10.3,0c-0.5-5.1,0.4-9.1,6.7-10.1c0,3.2,0,6.4,0,10c2.7,0.2,4.9,0.4,7.1,0.6
	c1.4,6.2,1.4,6.2-6.1,6.9c-2.8,10.1-1.1,15.2,5.9,17.5c0,1.6,0,3.2,0,4.8c-7.7,2.5-12.9-0.8-13.4-8.7c-0.3-4.3,0-8.6,0-13.4
	c-3.4,0-6.5,0-9.5,0c-2.4,11.1-1.2,14.9,5.7,17.3c0,1.7,0,3.5,0,5.2c-8.3,1.7-12.9-1.6-13.4-9.6c-0.2-2.8,0.2-5.7-0.1-8.5
	c-0.2-1.8-1.5-3.5-2.2-5.2c-0.4-1-1.2-2.7-0.7-3.1c3.7-4.2,1.3-12.4,9.9-13.8C-558.2,784.7-558.2,788-558.2,791.6z"/>
<path fill="#FFFFFF" d="M-598.4,822c-2.5,0-4.5,0-6.9,0c0-6.2,0-12.1,0-18.1c0-3.7-1.6-6-5.6-6.1c-3.2-0.1-4.9,1-4.8,4.6
	c0.2,6.4,0.1,12.9,0.1,19.6c-2.5,0-4.4,0-6.7,0c0-13.6,0-27,0-40.8c2.1,0,4.1,0,6.5,0c0.2,3.5,0.3,6.9,0.5,10.6
	c1.8-0.2,3.3-0.5,4.7-0.5c6.9-0.3,11.8,3.5,12.2,10.3C-598,808.2-598.4,814.8-598.4,822z"/>
<path fill="#FFFFFF" d="M-387.8,781.1c1.5-0.1,2.6-0.2,3.8-0.2c0.8,0,1.6,0.1,2.9,0.3c0,6.8,0,13.6,0,20.9
	c6.1-3.7,7.9-13.4,17.7-9.5c-3.7,4.3-7.4,8.6-11.2,13.1c4,5.2,7.8,10.4,11.9,15.8c-10.2,3.8-11.3-6.4-17.6-10.7
	c-0.4,4-0.7,7.3-1,11.1c-2.1,0-4.1,0-6.5,0C-387.8,808.4-387.8,795-387.8,781.1z"/>
<path fill="#FFFFFF" d="M-508,816.7c-3.5,5.6-8.9,7.6-15.1,5.9c-5.5-1.5-7.9-5-8-11.6c0-2.7,0-5.3,0-8c0.1-7.6,4.6-11.9,12.3-11.8
	c7.4,0.1,11.7,4.4,11.8,11.8c0,2.1,0,4.3,0,7.2c-3.2,0-5.9,0-8.7,0c-2.6,0-5.2,0-7.9,0c-0.2,5.1,2.9,7.2,7.2,5.4
	C-512,814-512,814-508,816.7z M-523.7,804.4c3.2,0,6.3,0,9.4,0c0.7-4-0.9-6.1-4.6-6.2C-522.6,798-524.4,799.9-523.7,804.4z"/>
<path fill="#FFFFFF" d="M-595,792.2c2.6,0,4.6,0,7,0c0,6.5,0.1,12.8,0,19.1c0,3.5,1.7,5.2,5,5.6c3.4,0.4,5.3-0.4,5.1-4.5
	c-0.3-6.6-0.1-13.2-0.1-20.2c2.5,0,4.5,0,7.1,0c0,8.9,0.1,17.6-0.1,26.4c0,0.9-1.1,2.4-1.8,2.5c-5.3,0.5-10.8,1.3-16,0.8
	c-3.9-0.4-6.1-4.1-6.2-8.1C-595.2,806.7-595,799.6-595,792.2z"/>
<path fill="#FFFFFF" d="M-649.4,820.6c0.9-2,1.7-3.8,2.3-5.2c4,0.3,7.7,0.8,11.2,0.7c1.1,0,2.2-1.5,3.4-2.3c-0.9-1-1.7-2.5-2.8-3
	c-2-0.8-4.2-1-6.3-1.5c-3.9-1-5.9-3.5-6.2-7.5c-0.2-4,1.3-7.2,5.1-8.9c5.6-2.6,10.9-1.5,16.7,0.9c-0.8,2.2-1.5,4-2.1,5.7
	c-3.3-0.4-6.4-1.1-9.5-1.1c-1,0-2.1,1.6-3.1,2.5c0.9,0.9,1.6,2.1,2.7,2.5c2,0.8,4.2,0.9,6.3,1.5c4,1.1,6.2,3.8,6.4,7.9
	c0.1,4.1-1.6,7.2-5.3,8.8C-636.9,824.3-642.9,823.3-649.4,820.6z"/>
<path fill="#FFFFFF" d="M-464.8,793.7c-0.8,2.2-1.4,3.9-2.1,5.8c-2.7-0.5-5.3-1.4-7.8-1.3c-1.6,0.1-3.2,1.6-4.8,2.4
	c1.3,1,2.5,2.3,4,3.1c1.3,0.6,2.9,0.6,4.3,0.9c4.4,1,7,3.9,7.1,8.4s-2.3,7.6-6.5,9c-5.8,2-11.4,1.2-17.5-1.4c0.8-2,1.6-3.9,2.2-5.3
	c4.1,0.3,7.7,0.8,11.3,0.7c1.1,0,2.2-1.5,3.3-2.4c-0.9-1-1.7-2.4-2.8-2.9c-2-0.8-4.2-1-6.3-1.5c-3.8-1-6-3.6-6.3-7.4
	c-0.3-4,1.3-7.1,5.1-8.9C-476,790.3-470.6,791.2-464.8,793.7z"/>
<path fill="#FFFFFF" d="M-391,799.4c-3,2.1-5.3,2.7-8.4-0.1c-3.7-3.3-8.2-0.6-8.5,4.5c-0.1,1.5-0.3,3.1,0,4.5
	c0.6,2.5,1.2,6.6,2.7,7.1c2.6,0.8,5.9-0.7,8.9-1.2c0-0.6-0.1-1.1-0.1-1.7c1.8,0.7,3.6,1.4,5.3,2.1c-2.1,6.5-7.3,9.4-14.2,8.3
	c-6-0.9-9.3-4.7-9.5-10.9c-0.1-3,0-6,0-9c0.1-6.9,2.9-10.3,9.3-11.5C-398.5,790.4-393.6,793-391,799.4z"/>
<path fill="#FFFFFF" d="M-445.9,816.7c0,1.6,0,3.2,0,4.8c-8.2,2.3-13.1-1.3-13.3-9.6c-0.1-2.5,0.1-5,0-7.5c-0.1-2.4,1.1-5.4-2.7-6.5
	c-0.3-0.1,0.4-4,1-6c0.3-1,1.6-1.8,1.7-2.8c0.6-5.2,0.5-5.3,6.6-7.8c0.2,3.4,0.4,6.6,0.6,10.3c2.1,0.2,4.2,0.3,6.7,0.5
	c0,2,0,4,0,6.2c-2.2,0.3-4.3,0.5-6.3,0.7C-453.8,810.2-452.6,814.2-445.9,816.7z"/>
<path fill="#FFFFFF" d="M-488.1,792.2c0,1.7,0,3.5,0,5.3c-8.6,1.7-8.6,1.7-8.6,10.6c0,4.5,0,9,0,13.8c-2.2,0-4.1,0-6.5,0
	c0-7.5-0.4-15,0.1-22.4C-502.5,793.3-495.5,790.1-488.1,792.2z"/>
<path fill="#FFFFFF" d="M-427.3,792.2c0,2.2,0,4.2,0,6.8c-6.6-1.2-10.2,1.3-8.2,8.8c-2.6,0-4.6,0-6.6,0
	C-444.5,795.5-440.5,791.1-427.3,792.2z"/>
<path fill="#FFFFFF" d="M-423.6,805.1c2.6,1.6,5.8,2.3,6.1,3.8c1.7,6.8-1.4,12.5-6.8,13.3c-2.6,0.3-5.2,0.1-8.3,0.1
	c0-2.3,0-4.3,0-6.2C-424.9,814.3-424.9,814.3-423.6,805.1z"/>
<path fill="#FFFFFF" d="M611.3,794.6c-0.2-1.8-0.4-3.5-0.6-6c-1.1,2.6-1.9,4.5-3.2,7.6c-1.3-3-2.1-4.9-3.2-7.5
	c-0.2,2.5-0.4,4.2-0.6,5.9c-0.3,0-0.6,0-0.9,0c0-3.7,0-7.5,0-11.2c0.4-0.1,0.8-0.2,1.2-0.3c1.1,2.7,2.3,5.4,3.6,8.4
	c1.1-2.9,2.1-5.6,3.1-8.3c0.5,0.1,0.9,0.1,1.4,0.2c0,3.7,0,7.4,0,11.2C611.9,794.6,611.6,794.6,611.3,794.6z"/>
<path fill="#FFFFFF" d="M622.9,794.5c-3.2-3.4-5.6-4.1-8.9-0.1c1.2-3.8,2.4-7.6,3.7-11.5c0.6,0,1.1,0,1.7,0
	C620.5,786.8,621.7,790.7,622.9,794.5z"/>
<path fill="#FFFFFF" d="M641,794.9c-2.5,0-4.3,0-6.4,0c0-3.9,0-7.6,0-11.5c2,0,3.8,0,5.9,0c-1.6,1.3-3,2.3-4.3,3.3
	c1.1,0.8,2.1,1.6,3.1,2.3c-0.9,0.9-2,2.1-3.1,3.2C637.4,792.9,638.7,793.6,641,794.9z"/>
<path fill="#FFFFFF" d="M650.2,783.5c6.2-0.6,7.7,0.4,7.8,5.3c0.1,5.4-1.2,6.4-7.8,6.1C650.2,791.2,650.2,787.5,650.2,783.5z
	 M650.7,785.7c0.9,2.6,1.8,5.2,2.7,7.8c0.9-1.3,2.3-2.5,2.5-3.9C656.3,787,656.2,784.1,650.7,785.7z"/>
<path fill="#FFFFFF" d="M630.7,788.5c0.5,1.3,1.8,3.5,1.5,3.7c-1.6,1.2-3.6,2.6-5.4,2.5c-1,0-2.6-2.9-2.6-4.4c0.1-2.3,1-5,2.5-6.8
	c0.6-0.8,3.5,0.3,5.3,0.6c-0.1,0.4-0.1,0.8-0.2,1.2c-1.7,0-4.4-0.7-5,0.1c-1,1.4-0.9,3.7-0.8,5.6c0,0.9,1,2,1.9,2.4
	c0.6,0.2,2.3-0.5,2.4-1.1c0.2-0.9-0.5-2-0.8-3C629.9,789.1,630.3,788.8,630.7,788.5z"/>
<path fill="#FFFFFF" d="M-352.3,794.6c-2.5,1.5-4,3.2-5.2,3c-1.3-0.3-2.2-2.3-3.3-3.5c1.2-1.1,2.4-2.9,3.8-3
	C-355.9,791.1-354.6,792.9-352.3,794.6z"/>
<path fill="#FFFFFF" d="M666,791.3c1.6-2.4,3.2-4.9,4.8-7.4c0.3,0,0.7,0.1,1,0.1c0,3.3,0,6.6,0,9.4C670,792.7,668.1,792.1,666,791.3
	z"/>
<path d="M703.5,815.3c-1.7,1.4-2.8,2.2-3.9,3.1c-0.9-1.2-2-2.4-2.5-3.8c-0.1-0.4,1.7-2.2,2.5-2C700.8,812.8,701.8,814,703.5,815.3z"
	/>
<path fill="#FFFFFF" d="M715.8,790.5c-1.5-1.5-2.9-3.1-4.4-4.6c0.2-0.2,0.5-0.5,0.7-0.7c1.5,1.4,2.9,2.7,4.4,4.1
	C716.4,789.6,716.1,790.1,715.8,790.5z"/>
<path fill="#FFFFFF" d="M-479.6-583.2c-0.5-1.3-1-2.7-1.3-4.1c-1.1-5.2-1.8-10.6-3.3-15.8c-1.9-6.4-3.7-7.1-11.6-6.2
	c0,4.1-0.1,8.4,0,12.7c0,2.5-0.4,4.3-3.5,4.2c-3-0.1-3.4-1.9-3.4-4.4c0-10.8,0.1-21.6,0-32.5c0-3.2,1.1-5.2,4.5-5.1
	c4.3,0,8.7-0.3,12.9,0.4c4,0.7,7.6,2.8,8.5,7.3c1,4.8,0.8,9.3-3.5,12.6c-0.6,0.5-1.2,1.1-1.2,1.1c1.6,4.3,3.4,8,4.5,12
	c0.9,3.3,0.8,6.9,5.7,6.4c0.5-0.1,1.1,0.9,1.7,1.4c-0.6,0.7-1.2,1.8-1.9,1.9c-2.1,0.4-4.3,0.4-6.6,0.6c0,2.5,0,4.8,0,7.2
	C-478.5-583.4-479-583.3-479.6-583.2z M-495.7-615.8c4.7,1,9.2,1.2,11.8-2.5c1.3-1.8,1.2-5.9-0.1-7.8c-2.8-4.1-7.3-3.2-11.7-2.2
	C-495.7-624.1-495.7-620.2-495.7-615.8z"/>
<path fill="#FFFFFF" d="M-546.4-612.1c0-13.9,7.8-22.9,19.1-22.9c14.6,0,22.9,14.4,17.6,30.6c-4.5,13.6-21.2,17.7-31.2,7.4
	C-545.2-601.4-546.8-606.9-546.4-612.1z M-540.6-612.8c1.2,3.5,2,7.4,3.8,10.6c3.7,6.5,13.8,6.8,18.2,0.8c4.8-6.6,4.5-13.9,1.7-20.9
	c-1.5-3.8-4.7-6.7-9.6-6.8C-534.7-629.3-539.8-623.4-540.6-612.8z"/>
<path fill="#FFFFFF" d="M-639.3-592.3c0-13.7-0.1-26.4,0.1-39.2c0-0.9,2-2.6,3.1-2.7c5.5-0.3,11-0.3,16.5,0c1.2,0.1,2.3,1.7,3.4,2.6
	c-1.2,0.9-2.4,2.6-3.7,2.7c-4.1,0.3-8.3,0.1-12.7,0.1c0,3.9,0,7.5,0,11.6c4.8,0,9.6,0,14.3,0c1.8,4.6,0.5,6.4-3.9,6.1
	c-3.3-0.2-6.6,0-10.3,0c0,4.4,0,8.4,0,13.2c4.6,0,9-0.2,13.4,0.1c1.4,0.1,2.6,1.7,3.9,2.6c-1.3,0.9-2.5,2.6-3.8,2.7
	C-625.5-592.1-632-592.3-639.3-592.3z"/>
<path fill="#FFFFFF" d="M-677.7-633.3c5-2.1,7.2-0.5,8.3,3.8c1.2,4.7,2.6,9.2,4.1,13.8c1.4,4.6,3,9.1,4.7,14.3
	c3.3-9.9,6.3-19.3,9.8-28.5c0.7-1.8,2.7-3.6,4.5-4.2c2.3-0.7,3.8,0.5,2.7,3.4c-4.4,11.8-8.5,23.6-13,35.4c-0.5,1.3-2.7,2.7-4.2,2.8
	c-1.4,0.1-3.7-1.2-4.1-2.4C-669.4-607.5-673.5-620.3-677.7-633.3z"/>
<path fill="#FFFFFF" d="M-587.7-629c-6.2-0.6-11.8,0.6-15.1,6.3c-3.7,6.4-3.8,13.1,0.1,19.4c3.5,5.7,9.4,6.2,15.4,5.7
	c1.3-0.1,2.7-0.9,3.9-0.6c1.2,0.3,2.5,1.3,3,2.4c0.3,0.6-0.8,2.5-1.7,2.8c-9.5,3.5-19.8,1.2-25.5-5.7c-6-7.2-6.2-19.5-0.6-27.5
	c5.1-7.3,16.2-11,24.9-7.9c1.3,0.5,2,2.4,3,3.6c-1.3,0.6-2.6,1.5-3.9,1.8C-585.3-628.5-586.5-628.9-587.7-629z"/>
<path fill="#FFFFFF" d="M-558.2-628.7c0,11,0.1,21.3-0.1,31.6c0,1.5-0.8,4-1.9,4.4c-3.1,1.2-4.9-0.1-4.9-3.8c0.1-8.7,0.1-17.3,0-26
	c0-1.9-0.3-3.9-0.5-6.2c-3.2,0-6.1,0.3-8.8-0.1c-1.2-0.2-2.2-1.7-3.3-2.6c1.1-1,2.2-2.7,3.3-2.8c8.5-0.2,17-0.2,25.5,0
	c1,0,1.9,2,2.9,3c-1,0.8-1.9,2.2-3,2.3C-551.7-628.5-554.5-628.7-558.2-628.7z"/>
<path fill="#FFFFFF" d="M-461.1-581.3c-0.4,2.8,0,6.4-1.6,8.1c-1.6,1.8-5.2,2-8,2.7c-0.4,0.1-1.5-0.8-1.7-1.4
	c-0.1-0.6,0.3-1.9,0.8-2.1c1.9-0.8,4.4-0.9,5.7-2.2c1.3-1.2,1.5-3.6,2.1-5.5C-462.8-581.6-462-581.4-461.1-581.3z"/>
<path d="M-523.7,804.4c-0.7-4.5,1.2-6.4,4.8-6.2c3.7,0.1,5.3,2.2,4.6,6.2C-517.4,804.4-520.5,804.4-523.7,804.4z"/>
<path d="M650.7,785.7c5.5-1.6,5.5,1.3,5.1,4c-0.2,1.4-1.6,2.6-2.5,3.9C652.5,790.9,651.6,788.3,650.7,785.7z"/>
<path d="M-495.7-615.8c0-4.4,0-8.3,0-12.5c4.4-0.9,8.9-1.9,11.7,2.2c1.3,1.9,1.3,6,0.1,7.8C-486.5-614.7-491-614.8-495.7-615.8z"/>
<path d="M-540.6-612.8c0.8-10.6,5.9-16.5,14.2-16.3c4.9,0.1,8.1,3,9.6,6.8c2.7,7,3.1,14.3-1.7,20.9c-4.4,6-14.5,5.8-18.2-0.8
	C-538.5-605.5-539.3-609.3-540.6-612.8z"/>
<g>
	<path fill="#AEB2B7" d="M35.6,32.1C35.6,14.3,49.9,0,67.7,0s32.1,14.1,32.1,32.1c0,17.8-14.5,32.1-32.1,31.9
		C49.9,64,35.6,50.2,35.6,32.1z M93.4,32.1C93.2,17.8,82,6.3,67.7,6.3c-14.3,0-25.9,11.4-25.9,25.6c0,7.2,2.6,13.4,7.6,18.4
		c5,4.9,11,7.5,18,7.5C81.7,57.8,93.4,46.4,93.4,32.1z"/>
	<path fill="#AEB2B7" d="M41.2,66c-3,3.8-5.9,7.6-8.8,11.4c-4.3,5.2-8.8,10-13.7,14.6c-2.7,2.4-5.5,4.7-8.8,6.5
		C8,99.5,6,100.2,3.8,99.9c-2.1-0.5-4-2.4-4-4.4c-0.2-2.3,0.8-4.3,1.8-6.2c2.9-5,6.8-9.1,10.8-13.1c5.9-5.9,12.5-11.3,19.3-16.1
		c0.6-0.5,1.1-0.8,1.7-1.1c0.3-0.2,0.8-0.2,0.9,0c2.1,2.1,4.3,4.3,6.4,6.5C40.7,65.5,40.9,65.7,41.2,66z"/>
	<path fill="#AEB2B7" d="M38.4,49.9c2.7,4.3,6.1,7.9,10.3,10.6c1.2,0.8,1.2,1.2,0.3,2.1c-0.9,0.9-1.7,1.7-2.6,2.6
		c-0.9,0.8-2,0.9-2.9,0c-3-3-6.1-6.1-9.1-9.1c-0.6-0.6-0.8-1.8-0.2-2.4C35.6,52.4,37.1,51.2,38.4,49.9z"/>
	<path fill="#AEB2B7" d="M54.9,29.3c0.3-1.7,0.3-1.7,2-1.7c7.2,0,14.3,0,21.3,0c1.7,0,1.7,0,2,1.7c0.9-0.6,1.8-1.1,2.7-1.5
		c1.1-0.6,1.8-0.3,2.4,0.6c0.5,0.8,0.2,1.7-0.8,2.3c-1.4,0.8-2.6,1.5-4,2.3c-0.6,0.3-0.8,0.8-0.5,1.2c0.2,0.3,0.6,0.3,0.9,0.5
		c1.2,0.2,2.4,0,3.5,0.2c0.9,0.2,1.4,0.8,1.2,1.7C85.6,37.2,85,38,84.2,38c-1.1,0-2.1-0.2-3.2-0.2c-0.3,0-0.9,0.3-0.9,0.5
		c0,0.5-0.5,1.1,0.3,1.5c1.1,0.5,2,1.1,2.9,1.7c0.5,0.3,0.9,0.5,1.4,0.8c0.8,0.5,1.1,1.4,0.6,2.1c-0.5,0.9-1.4,1.2-2.3,0.6
		c-1.1-0.6-2.1-1.4-3.2-2c-0.2-0.2-0.3-0.2-0.6-0.3c-2.1,5-5.8,8.2-11.3,8.4c-6.1,0.3-10-2.9-12.5-8.2c-1.1,0.6-2.1,1.2-3.2,1.8
		c-1.1,0.6-2,0.6-2.6-0.3c-0.6-0.9-0.5-1.7,0.5-2.3c1.2-0.8,2.6-1.5,4-2.3c0.8-0.5,0.9-0.9,0.8-1.8c-1.2,0-2.6,0-3.8,0
		c-1.1,0-1.8-0.6-1.8-1.7c0-0.9,0.6-1.7,1.8-1.7c1.1,0,2.1,0,3.2,0c0.3,0,0.8-0.2,0.8-0.5c0.2-0.5,0.2-0.9-0.5-1.2
		c-1.4-0.8-2.6-1.5-4-2.3c-1.1-0.6-1.4-1.5-0.8-2.3c0.6-0.9,1.4-1.1,2.4-0.5C53.1,28.4,54,28.9,54.9,29.3z"/>
	<path fill="#AEB2B7" d="M74.5,18.7c2.7,2,4.6,4.6,5.3,7.9c-8.2,0-16.4,0-24.6,0c0.3-1.7,0.9-3.2,2-4.4c0.9-1.2,2.1-2.4,3.3-3.8
		c-1.2-1.2-2.6-2.4-4-3.8c-0.6-0.6-0.5-1.2,0.3-1.4c0.3-0.2,0.8,0.2,1.1,0.3c1.2,1.2,2.4,2.4,3.7,3.7c0.5,0.5,0.8,0.5,1.2,0.3
		c3.2-1.4,6.4-1.4,9.6,0c0.5,0.2,0.8,0.2,1.2-0.3c1.2-1.2,2.4-2.4,3.7-3.8c0.5-0.5,0.9-0.6,1.4-0.2s0.2,0.9-0.2,1.4
		C77.2,15.9,75.9,17.3,74.5,18.7z"/>
</g>
</svg>
