<?xml version="1.0" encoding="utf-8"?>
<!-- Generator: Adobe Illustrator 17.1.0, SVG Export Plug-In . SVG Version: 6.00 Build 0)  -->
<!DOCTYPE svg PUBLIC "-//W3C//DTD SVG 1.1//EN" "http://www.w3.org/Graphics/SVG/1.1/DTD/svg11.dtd">
<svg version="1.1" id="Layer_1" xmlns="http://www.w3.org/2000/svg" xmlns:xlink="http://www.w3.org/1999/xlink" x="0px" y="0px"
	 viewBox="0 0 100 100" enable-background="new 0 0 100 100" xml:space="preserve">
<g>
	<path fill="#AEB2B7" d="M11.8,36.3v3.5c-0.1,0-0.2,0-0.3,0s-0.2,0-0.3,0c-0.9,0-1.6,0.2-1.9,0.5c-0.3,0.3-0.5,1-0.5,2.1v3.5
		c0,1.4-0.2,2.3-0.7,2.9c-0.4,0.6-1.2,1-2.4,1.2c1.2,0.2,2,0.6,2.4,1.2c0.4,0.6,0.7,1.5,0.7,2.9v3.5c0,1.1,0.2,1.8,0.5,2.1
		c0.3,0.3,1,0.5,1.9,0.5c0.1,0,0.2,0,0.3,0c0.1,0,0.2,0,0.3,0v3.5c-0.1,0-0.3,0-0.6,0c-0.3,0-0.5,0-0.6,0c-1,0-1.9-0.1-2.6-0.2
		c-0.7-0.1-1.3-0.3-1.7-0.5c-0.6-0.3-1-0.7-1.2-1.3c-0.2-0.5-0.3-1.5-0.3-2.8v-3.7c0-1.3-0.2-2.2-0.7-2.7c-0.5-0.5-1.3-0.8-2.4-0.8
		c0,0-0.1,0-0.2,0c-0.1,0-0.2,0-0.3,0v-3.5c0.1,0,0.1,0,0.3,0c0.1,0,0.2,0,0.3,0c1.1,0,2-0.3,2.4-0.8C4.4,47,4.7,46,4.7,44.8v-3.7
		c0-1.3,0.1-2.2,0.3-2.8c0.2-0.6,0.6-1,1.2-1.3c0.5-0.2,1-0.4,1.8-0.5s1.6-0.2,2.6-0.2c0.1,0,0.3,0,0.6,0
		C11.4,36.3,11.6,36.3,11.8,36.3z"/>
	<path fill="#AEB2B7" d="M15.6,39.7h8.2c2.7,0,4.7,0.4,6.1,1.3c1.3,0.9,2,2.2,2,4c0,1.3-0.3,2.4-1,3.3c-0.7,0.9-1.7,1.4-3,1.7
		c1.1,0.4,2,1.5,2.6,3.4v0l2.5,6.8h-5.7l-1.8-5.6c-0.3-0.9-0.7-1.5-1.2-1.9s-1.3-0.5-2.3-0.5H21v8h-5.4V39.7z M21,43.3v5.3h1.9
		c1.2,0,2.1-0.2,2.7-0.6s0.9-1.1,0.9-1.9c0-0.9-0.3-1.6-1-2c-0.7-0.4-1.7-0.7-3.1-0.7H21z"/>
	<path fill="#AEB2B7" d="M35.1,39.7h14.3v3.9h-8.8v4.2H49v3.9h-8.3v4.7h9.1v4H35.1V39.7z"/>
	<path fill="#AEB2B7" d="M67,39.9l-0.4,4.2c-0.8-0.4-1.6-0.6-2.4-0.8c-0.8-0.2-1.5-0.3-2.2-0.3c-1.1,0-2,0.2-2.6,0.5
		c-0.6,0.4-0.9,0.8-0.9,1.5c0,0.4,0.2,0.8,0.5,1.1c0.3,0.3,0.8,0.6,1.4,0.8c0.2,0.1,0.5,0.2,0.9,0.3c2.4,0.8,3.9,1.4,4.7,2
		c0.7,0.6,1.3,1.2,1.6,1.9c0.3,0.7,0.5,1.6,0.5,2.5c0,2.3-0.8,4-2.3,5.2c-1.5,1.2-3.7,1.8-6.6,1.8c-1,0-2.1-0.1-3.1-0.2
		c-1-0.1-2.1-0.4-3.1-0.7l0.5-4.6c1,0.4,1.9,0.8,2.8,1c0.9,0.2,1.8,0.3,2.6,0.3c1.1,0,1.9-0.2,2.6-0.6c0.6-0.4,0.9-1,0.9-1.7
		c0-0.9-1-1.6-3-2.3c-0.5-0.2-0.9-0.3-1.1-0.4c-2-0.7-3.4-1.5-4.2-2.5c-0.8-0.9-1.3-2.1-1.3-3.6c0-2.1,0.7-3.7,2.2-4.8
		s3.6-1.7,6.4-1.7c1,0,2,0.1,2.9,0.2C65.2,39.5,66.1,39.7,67,39.9z"/>
	<path fill="#AEB2B7" d="M69.5,39.7h15.7v4.1h-5.1v16.5h-5.5V43.8h-5.1V39.7z"/>
	<path fill="#AEB2B7" d="M87.5,36.3c0.1,0,0.3,0,0.6,0c0.3,0,0.4,0,0.6,0c1,0,1.9,0.1,2.6,0.2c0.7,0.1,1.3,0.3,1.8,0.5
		c0.6,0.3,1,0.7,1.2,1.3c0.2,0.6,0.4,1.5,0.4,2.8v3.7c0,1.3,0.2,2.2,0.7,2.7c0.5,0.5,1.3,0.8,2.4,0.8c0.1,0,0.1,0,0.3,0
		c0.1,0,0.2,0,0.3,0v3.5c-0.1,0-0.1,0-0.3,0c-0.1,0-0.2,0-0.3,0c-1.2,0-2,0.3-2.4,0.8c-0.5,0.5-0.7,1.4-0.7,2.7v3.7
		c0,1.3-0.1,2.3-0.4,2.8c-0.2,0.6-0.6,1-1.2,1.3c-0.4,0.2-1,0.4-1.6,0.5c-0.7,0.1-1.5,0.2-2.6,0.2c-0.1,0-0.3,0-0.6,0
		c-0.3,0-0.5,0-0.7,0v-3.5c0.1,0,0.2,0,0.3,0c0.1,0,0.2,0,0.3,0c0.9,0,1.6-0.2,1.9-0.5s0.5-1,0.5-2.1v-3.5c0-1.4,0.2-2.3,0.7-2.9
		c0.4-0.6,1.2-1,2.4-1.2c-1.2-0.2-2-0.6-2.4-1.2s-0.7-1.5-0.7-2.9v-3.5c0-1.1-0.2-1.8-0.5-2.1s-0.9-0.5-1.8-0.5c-0.1,0-0.2,0-0.3,0
		c-0.1,0-0.3,0-0.4,0V36.3z"/>
</g>
</svg>
