<?xml version="1.0" encoding="utf-8"?>
<!-- Generator: Adobe Illustrator 17.1.0, SVG Export Plug-In . SVG Version: 6.00 Build 0)  -->
<!DOCTYPE svg PUBLIC "-//W3C//DTD SVG 1.1//EN" "http://www.w3.org/Graphics/SVG/1.1/DTD/svg11.dtd">
<svg version="1.1" id="Layer_1" xmlns="http://www.w3.org/2000/svg" xmlns:xlink="http://www.w3.org/1999/xlink" x="0px" y="0px"
	 viewBox="0 0 400 400" enable-background="new 0 0 400 400" xml:space="preserve">
<g>
	<path fill="#AEB2B7" d="M266,58.8c-13.2,0-26,1.6-38,4.8c-20-8-42.4-12.4-66-12.4c-86,0-156,58.4-156,130c0,38,19.6,73.6,54,98.4
		v68.8l71.6-40c10,1.6,20.4,2.4,30.4,2.4c42.4,0,81.2-14.4,109.2-37.6c6.4-0.4,12.8-0.8,19.2-2l60.4,33.6v-57.6
		c28-20.4,43.6-49.6,43.6-80.8C394.4,107.2,336.8,58.8,266,58.8L266,58.8z M161.6,290.4c-10,0-20.4-0.8-30.4-2.8l-3.6-0.8l-46.8,26
		v-44l-4.8-3.2c-31.2-20.8-49.2-51.6-49.2-84.4c0-60,60.4-109.2,134.8-109.2c12,0,23.6,1.2,34.8,3.6c-35.6,19.2-59.2,52.4-59.2,90.4
		c0,51.2,43.2,94.4,100.4,105.2C216,283.6,190,290.4,161.6,290.4L161.6,290.4z M334.4,233.2l-4.8,3.2V270L294,250l0,0l-3.6,0.8
		c-8,1.6-16.4,2.4-24.4,2.4c-0.8,0-1.6,0-2.4,0c-58.4-1.2-105.2-39.6-105.2-86.8c0-36.8,28.4-68,68.4-80.8c10-3.2,21.2-5.2,32.4-6
		c2.4,0,4.4-0.4,6.8-0.4c59.2,0,107.6,38.8,107.6,86.8C373.6,192.4,359.2,216.4,334.4,233.2L334.4,233.2z"/>
</g>
</svg>
