<?xml version="1.0" encoding="utf-8"?>
<!-- Generator: Adobe Illustrator 17.1.0, SVG Export Plug-In . SVG Version: 6.00 Build 0)  -->
<!DOCTYPE svg PUBLIC "-//W3C//DTD SVG 1.1//EN" "http://www.w3.org/Graphics/SVG/1.1/DTD/svg11.dtd">
<svg version="1.1" id="Layer_1" xmlns="http://www.w3.org/2000/svg" xmlns:xlink="http://www.w3.org/1999/xlink" x="0px" y="0px"
	 viewBox="0 0 400 400" enable-background="new 0 0 400 400" xml:space="preserve">
<path d="M-2808,3004c902.4,0,1804.8,0.4,2707.2,0.4c976.4,0,1952.8-0.4,2929.2-0.4c121.2,0,242.4,0,364,0c0,133.2,0,266.8,0,400
	c-2000,0-4000,0-6000,0C-2808,3270.8-2808,3137.2-2808,3004z M-2232.8,3166.4c0-14.4,0-27.6,0-40.8c-34,5.6-24.8,38.4-39.6,55.2
	c-1.6,2,1.2,8.4,2.8,12.4c2.8,7.2,7.6,13.6,8.8,20.8c1.6,11.2,0,22.8,0.4,34c2,32,20,45.2,53.6,38.4c0-6.8,0-14,0-20.8
	c-27.6-9.2-32.4-24.8-22.8-69.2c12.4,0,24.4,0,38,0c0,19.2-0.8,36.4,0,53.6c2,32,22.8,45.2,53.6,34.8c0-6.4,0-13.2,0-19.2
	c-28-8.8-34.8-29.6-23.6-70c30-3.2,30-3.2,24.4-27.6c-8.8-0.8-17.6-1.6-28.4-2.4c0-14.4,0-27.2,0-40c-24.8,3.6-28.8,20-26.8,40.4
	C-2204.8,3166.4-2216.8,3166.4-2232.8,3166.4z M-2393.6,3288c0-28.8,1.2-55.6-0.4-82c-1.6-27.2-21.6-42.4-48.8-41.2
	c-6,0.4-11.6,1.2-18.8,2c-0.8-14.8-1.2-28.4-2-42.4c-9.6,0-17.6,0-26,0c0,55.2,0,108.8,0,163.2c9.2,0,16.8,0,26.8,0
	c0-26.8,0.8-52.4-0.4-78.4c-0.4-14.4,6.4-18.8,19.2-18.4c16,0.4,22.4,9.2,22.4,24.4c0,23.6,0,47.6,0,72.4
	C-2411.2,3288-2403.6,3288-2393.6,3288z M-1551.2,3124.4c0,56,0,109.6,0,163.6c9.2,0,17.6,0,26,0c1.2-14.8,2.4-28.4,4-44.4
	c25.2,16.8,29.2,58,70.4,42.8c-16.4-21.6-32-42-47.6-63.2c15.2-18,30-35.2,44.8-52.4c-39.2-15.6-46.4,23.2-70.8,38
	c0-29.6,0-56.4,0-83.6c-5.2-0.4-8.4-1.2-11.6-1.2C-1540.8,3123.6-1545.6,3124-1551.2,3124.4z M-2032,3266.8
	c-16-10.8-16-10.8-33.2-3.6s-29.6-1.2-28.8-21.6c10.4,0,20.8,0,31.6,0s22,0,34.8,0c0-12,0-20.4,0-28.8
	c-0.4-29.6-17.6-46.8-47.2-47.2c-30.8-0.4-48.8,16.4-49.2,47.2c0,10.8,0,21.2,0,32c0.4,26.4,10,40.4,32,46.4
	C-2067.6,3297.2-2046,3289.2-2032,3266.8z M-2380,3168.8c0,29.6-0.8,58,0.4,86.4c0.4,15.6,9.2,30.8,24.8,32.4
	c21.2,2.4,42.8-1.2,64-3.2c2.8-0.4,6.8-6.4,7.2-10c0.4-35.2,0.4-70,0.4-105.6c-10.4,0-18.4,0-28.4,0c0,27.6-0.8,54.4,0.4,80.8
	c0.8,16.4-7.2,19.6-20.4,18s-20-8.8-20-22.4c0.4-25.2,0-50,0-76.4C-2362,3168.8-2369.6,3168.8-2380,3168.8z M-2597.6,3282.4
	c25.6,11.2,50,14.8,74.8,4c14.8-6.4,22-18.8,21.2-35.2c-0.4-16.8-9.6-27.2-25.6-31.6c-8.4-2.4-17.2-3.2-25.2-6
	c-4.4-1.6-7.2-6.8-10.8-10c4-3.6,8.4-10,12.4-10c12.4,0,24.4,2.8,38,4.4c2.4-6.8,5.2-14,8.4-22.8c-22.8-9.6-44.4-14-66.8-3.6
	c-15.2,7.2-21.2,19.6-20.4,35.6c0.8,15.6,9.2,26,24.8,30c8.4,2,17.2,2.8,25.2,6c4.4,2,7.6,7.6,11.2,12c-4.4,3.2-8.8,9.2-13.6,9.2
	c-14.4,0.4-28.8-1.6-44.8-2.8C-2590.8,3267.2-2593.6,3274-2597.6,3282.4z M-1859.2,3174.8c-23.6-10-45.2-14-67.2-3.6
	c-15.2,7.2-21.6,19.6-20.4,35.6c1.2,15.6,9.6,26,25.2,29.6c8.4,2,17.2,2.8,25.2,6c4.8,2,7.6,7.6,11.2,11.6
	c-4.4,3.2-8.8,9.2-13.2,9.6c-14.4,0.4-28.8-1.6-45.2-2.8c-2.4,6-5.6,13.2-8.8,21.2c24.4,10.4,46.8,13.6,70,5.6c16.8-6,26.4-18,26-36
	s-10.8-29.6-28.4-33.6c-6-1.2-12.4-1.2-17.2-3.6c-6-2.8-10.8-8-16-12.4c6.4-3.6,12.8-9.6,19.2-9.6c10-0.4,20.4,3.2,31.2,5.2
	C-1864.8,3190.4-1862.4,3184-1859.2,3174.8z M-1564,3197.6c-10.4-25.6-30-36-57.6-31.2c-25.6,4.4-36.8,18-37.2,46c0,12-0.4,24,0,36
	c0.8,24.8,14,40,38,43.6c27.6,4.4,48.4-7.2,56.8-33.2c-7.2-2.8-14.4-5.6-21.2-8.4c0,2.4,0.4,4.4,0.4,6.8c-12,2-25.2,8-35.6,4.8
	c-6-2-8-18.4-10.8-28.4c-1.6-5.6-0.4-12,0-18c1.2-20.4,19.2-31.2,34-18C-1584.8,3208.4-1576,3206-1564,3197.6z M-1783.6,3266.8
	c-26.8-10-32-26-22.8-70.4c8-0.8,16.4-2,25.2-2.8c0-8.8,0-17.2,0-24.8c-10-0.8-18.4-1.6-26.8-2c-0.8-14.4-1.6-27.2-2.4-41.2
	c-24.4,10.4-24,10.4-26.4,31.2c-0.4,4-6,7.2-6.8,11.2c-2,8-4.8,23.6-4,24c15.2,4.4,10.8,16.4,10.8,26c0.4,10,0,20,0,30
	c0.8,33.2,20.4,47.6,53.2,38.4C-1783.6,3279.6-1783.6,3272.8-1783.6,3266.8z M-1952.4,3168.8c-29.6-8.4-57.6,4.4-59.6,29.2
	c-2.4,29.6-0.4,59.6-0.4,89.6c9.2,0,16.8,0,26,0c0-19.6,0-37.2,0-55.2c0-35.6,0-35.6,34.4-42.4
	C-1952.4,3182.8-1952.4,3175.6-1952.4,3168.8z M-1709.2,3168.8c-52.8-4.4-68.8,13.2-59.2,62.4c8,0,16.4,0,26.4,0
	c-8-30,6.4-39.6,32.8-35.2C-1709.2,3185.6-1709.2,3177.6-1709.2,3168.8z M-1694.4,3220.4c-4.8,36.8-4.8,36.8-35.6,43.6
	c0,8,0,16,0,24.8c12,0,22.8,1.2,33.2-0.4c21.6-2.8,34-26,27.2-53.2C-1671.6,3229.6-1684,3226.4-1694.4,3220.4z M2445.2,3178.4
	c1.2,0,2,0,3.2-0.4c0-14.8,0-29.6,0-44.8c-2-0.4-3.6-0.4-5.6-0.8c-4,10.8-8,21.6-12.4,33.2c-5.2-12-9.6-22.8-14.4-33.6
	c-1.6,0.4-3.2,0.8-4.8,1.2c0,14.8,0,30,0,44.8c1.2,0,2.4,0,3.6,0c0.8-6.8,1.2-14,2.4-23.6c4.4,10.4,7.6,18,12.8,30
	c5.2-12.4,8.4-20,12.8-30.4C2444,3164.4,2444.4,3171.6,2445.2,3178.4z M2491.6,3178c-4.8-15.2-9.6-30.8-14.4-46c-2.4,0-4.4,0-6.8,0
	c-4.8,15.2-9.6,30.4-14.8,46C2469.2,3161.6,2478.8,3164.4,2491.6,3178z M2564,3179.6c-8.8-5.2-14-8-19.2-10.8
	c4.4-4.8,9.2-9.2,12.4-12.8c-4-2.8-8.4-6-12.4-9.2c5.2-4,10.4-8,17.2-13.2c-8.4,0-15.6,0-23.6,0c0,16,0,30.8,0,46
	C2546.8,3179.6,2553.6,3179.6,2564,3179.6z M2600.8,3134c0,16.4,0,31.2,0,45.6c26.4,1.6,31.6-2.8,31.2-24.4
	C2631.2,3135.6,2625.2,3131.2,2600.8,3134z M2522.8,3154c-1.6,1.2-3.2,2.4-4.4,3.6c1.2,4,4,8.4,3.2,12c-0.4,2-7.2,5.2-9.6,4.4
	c-3.2-1.6-7.2-6-7.6-9.6c-0.4-7.6-0.8-16.8,3.2-22.4c2.4-3.2,12.8-0.4,20-0.4c0.4-1.6,0.4-3.2,0.8-4.8c-7.2-0.8-18.8-5.2-21.2-2.4
	c-6,7.2-9.6,17.6-10,27.2c-0.4,6,6.4,17.6,10.4,17.6c7.2,0.4,15.2-5.6,21.6-10C2529.6,3168,2524.8,3159.2,2522.8,3154z
	 M-1409.2,3178.4c-9.2-7.2-14.4-14.4-19.2-14c-5.2,0.4-10,7.6-15.2,12c4.4,4.8,8,12.8,13.2,14
	C-1425.6,3191.6-1419.2,3184.8-1409.2,3178.4z M2664,3165.2c8.4,3.2,16,6,23.2,8.4c0-11.2,0-24.4,0-37.6c-1.2,0-2.8-0.4-4-0.4
	C2676.8,3145.6,2670.4,3155.6,2664,3165.2z M2814,3261.2c-6.8-5.2-10.8-10-15.6-10.8c-2.8-0.4-10.4,6.4-10,8c2,5.6,6.4,10,10,15.2
	C2802.8,3270,2807.2,3266.8,2814,3261.2z M2863.2,3162c1.2-1.6,2-3.2,3.2-5.2c-6-5.6-11.6-10.8-17.6-16.4c-0.8,0.8-2,2-2.8,2.8
	C2851.6,3149.6,2857.6,3155.6,2863.2,3162z"/>
<path d="M-2808-2728c6.8,0.4,18.4,3.2,19.6,0.8c8.8-16.8,23.6-12.8,36.8-12.8c273.2,0,546.4,0.4,819.6,0.4c14,0,22.8,4,31.2,16
	c58.8,86.8,118,172.8,177.6,258.8c6.4,8.8,6.4,14.4-0.4,24c-58.4,84.4-116.4,169.2-174,254c-9.2,13.6-19.2,20-36.8,20
	c-284.4-0.8-569.2-0.4-853.6-0.4c-6.8,0-13.2-0.8-20-1.2c0-154.8,0-309.2,0-464c9.6,2.4,19.2,4.4,28.8,7.6c14.8,4.8,25.6,1.6,34-16
	c-21.6-4-42-8-62.4-11.6C-2808-2677.2-2808-2702.8-2808-2728z M-1918.4-2332.8c2-0.4,4-0.8,6.4-1.2c0-9.6,0-18.8,0-28.8
	c9.2-0.8,17.6-0.8,26.4-2.4c2.8-0.4,5.2-4.8,7.6-7.6c-2.4-2-4.8-6-6.8-5.6c-20,2-19.2-12.4-22.8-25.6c-4.4-16-11.6-30.8-18-48
	c0,0,2.4-2.4,4.8-4.4c17.2-13.2,18-31.6,14-50.4c-3.6-18-18.4-26.4-34-29.2c-16.8-2.8-34.4-1.6-51.6-1.6c-13.6,0-18.4,7.6-18,20.4
	c0.4,43.2,0.4,86.4,0,130c0,9.6,1.6,17.2,13.6,17.6c12.4,0.4,14-6.8,14-16.8c-0.4-17.2,0-34,0-50.8c32-3.6,38.8-0.8,46.4,24.8
	c6.4,20.4,8.8,42,13.2,63.2C-1922.4-2343.6-1920-2338.4-1918.4-2332.8z M-2185.6-2448.4c-2,21.2,4.8,42.8,22,60.4
	c40,40.8,106.8,24.8,124.8-29.6c21.2-64.8-12-122.4-70.4-122.4C-2154.4-2540-2185.6-2504-2185.6-2448.4z M-2557.2-2369.2
	c29.2,0,55.2,0.8,81.2-0.4c5.2-0.4,10-7.2,15.2-10.8c-5.2-3.6-10-10-15.6-10.4c-17.6-1.2-35.6-0.4-53.6-0.4c0-18.8,0-35.2,0-52.8
	c14.8,0,28-0.8,41.2,0c18,1.2,22.8-6,15.6-24.4c-18.8,0-37.6,0-57.2,0c0-16.4,0-30.8,0-46.4c18,0,34.4,0.8,50.8-0.4
	c5.2-0.4,10-6.8,14.8-10.8c-4.4-3.6-8.8-10-13.6-10.4c-22-1.2-44-1.2-66,0c-4.4,0.4-12.4,6.8-12.4,10.8
	C-2557.6-2474.8-2557.2-2423.6-2557.2-2369.2z M-2710.8-2533.2c16.8,52,33.2,103.2,50.4,153.6c1.6,4.8,11.2,10,16.4,9.6
	c6-0.4,14.8-6,16.8-11.2c18-46.8,34.8-94.4,52-141.6c4.4-11.6-1.6-16.8-10.8-13.6c-7.2,2.4-15.2,9.6-18,16.8
	c-13.6,36.8-25.6,74-39.2,114c-6.8-20.8-13.2-38.8-18.8-57.2s-11.6-36.8-16.4-55.2C-2682-2535.6-2690.8-2541.6-2710.8-2533.2z
	 M-2350.8-2516c4.8,0.4,9.6,2,14,1.2c5.6-1.2,10.4-4.8,15.6-7.2c-4-4.8-7.2-12.4-12-14.4c-34.8-12.4-79.2,2.4-99.6,31.6
	c-22.4,32-21.2,81.2,2.4,110c22.8,27.6,64,36.4,102,22.8c3.6-1.2,8-8.8,6.8-11.2c-2-4.4-7.2-8.4-12-9.6c-4.8-1.2-10.4,2-15.6,2.4
	c-24,2-47.6,0.4-61.6-22.8c-15.6-25.2-15.2-52-0.4-77.6C-2398-2513.6-2375.6-2518.4-2350.8-2516z M-2232.8-2514.8
	c14.8,0,26,0.8,36.8-0.4c4.4-0.4,8-6,12-9.2c-4-4.4-7.6-12-11.6-12c-34-0.8-68-1.2-102,0c-4.4,0-8.8,7.2-13.2,11.2
	c4.4,3.6,8.4,9.6,13.2,10.4c10.8,1.6,22.4,0.4,35.2,0.4c0.8,9.2,2,16.8,2,24.8c0.4,34.8,0.4,69.2,0,104c-0.4,14.8,7.2,20,19.6,15.2
	c4-1.6,7.2-11.2,7.6-17.6C-2232.4-2429.6-2232.8-2470.8-2232.8-2514.8z M-1844.4-2325.2c-3.6-0.4-6.8-1.2-10.4-1.6
	c-2.8,7.6-3.2,17.2-8.4,22c-5.6,5.2-15.6,5.2-22.8,8.8c-2,0.8-3.6,6-3.2,8.4s4.8,6,6.8,5.6c11.2-2.8,25.6-3.2,32-10.8
	C-1844.4-2299.6-1846.4-2314-1844.4-2325.2z"/>
<path fill="#FFFFFF" d="M-2808-2652c20.4,4,40.8,7.6,62.4,11.6c-8.4,17.6-19.2,20.8-34,16c-9.2-3.2-19.2-5.2-28.8-7.6
	C-2808-2638.8-2808-2645.2-2808-2652z"/>
<path fill="#FFFFFF" d="M-2232.8,3166.4c16,0,27.6,0,41.2,0c-2-20.4,1.6-36.4,26.8-40.4c0,12.8,0,25.6,0,40
	c10.8,0.8,19.6,1.6,28.4,2.4c5.6,24.8,5.6,24.8-24.4,27.6c-11.2,40.4-4.4,60.8,23.6,70c0,6.4,0,12.8,0,19.2
	c-30.8,10-51.6-3.2-53.6-34.8c-1.2-17.2,0-34.4,0-53.6c-13.6,0-26,0-38,0c-9.6,44.4-4.8,59.6,22.8,69.2c0,6.8,0,14,0,20.8
	c-33.2,6.8-51.6-6.4-53.6-38.4c-0.8-11.2,0.8-22.8-0.4-34c-0.8-7.2-6-14-8.8-20.8c-1.6-4-4.8-10.8-2.8-12.4
	c14.8-16.8,5.2-49.6,39.6-55.2C-2232.8,3138.8-2232.8,3152-2232.8,3166.4z"/>
<path fill="#FFFFFF" d="M-2393.6,3288c-10,0-18,0-27.6,0c0-24.8,0-48.4,0-72.4c0-14.8-6.4-24-22.4-24.4c-12.8-0.4-19.6,4-19.2,18.4
	c0.8,25.6,0.4,51.6,0.4,78.4c-10,0-17.6,0-26.8,0c0-54.4,0-108,0-163.2c8.4,0,16.4,0,26,0c0.8,14,1.2,27.6,2,42.4
	c7.2-0.8,13.2-2,18.8-2c27.6-1.2,47.2,14,48.8,41.2C-2392,3232.8-2393.6,3259.2-2393.6,3288z"/>
<path fill="#FFFFFF" d="M-1551.2,3124.4c6-0.4,10.4-0.8,15.2-0.8c3.2,0,6.4,0.4,11.6,1.2c0,27.2,0,54.4,0,83.6
	c24.4-14.8,31.6-53.6,70.8-38c-14.8,17.2-29.6,34.4-44.8,52.4c16,20.8,31.2,41.6,47.6,63.2c-40.8,15.2-45.2-25.6-70.4-42.8
	c-1.6,16-2.8,29.2-4,44.4c-8.4,0-16.4,0-26,0C-1551.2,3233.6-1551.2,3180-1551.2,3124.4z"/>
<path fill="#FFFFFF" d="M-2032,3266.8c-14,22.4-35.6,30.4-60.4,23.6c-22-6-31.6-20-32-46.4c0-10.8,0-21.2,0-32
	c0.4-30.4,18.4-47.6,49.2-47.2c29.6,0.4,46.8,17.6,47.2,47.2c0,8.4,0,17.2,0,28.8c-12.8,0-23.6,0-34.8,0c-10.4,0-20.8,0-31.6,0
	c-0.8,20.4,11.6,28.8,28.8,21.6C-2048,3256-2048,3256-2032,3266.8z M-2094.8,3217.6c12.8,0,25.2,0,37.6,0c2.8-16-3.6-24.4-18.4-24.8
	C-2090.4,3192-2097.6,3199.6-2094.8,3217.6z"/>
<path fill="#FFFFFF" d="M-2380,3168.8c10.4,0,18.4,0,28,0c0,26,0.4,51.2,0,76.4c0,14,6.8,20.8,20,22.4c13.6,1.6,21.2-1.6,20.4-18
	c-1.2-26.4-0.4-52.8-0.4-80.8c10,0,18,0,28.4,0c0,35.6,0.4,70.4-0.4,105.6c0,3.6-4.4,9.6-7.2,10c-21.2,2-43.2,5.2-64,3.2
	c-15.6-1.6-24.4-16.4-24.8-32.4C-2380.8,3226.8-2380,3198.4-2380,3168.8z"/>
<path fill="#FFFFFF" d="M-2597.6,3282.4c3.6-8,6.8-15.2,9.2-20.8c16,1.2,30.8,3.2,44.8,2.8c4.4,0,8.8-6,13.6-9.2
	c-3.6-4-6.8-10-11.2-12c-8-3.2-16.8-4-25.2-6c-15.6-4-23.6-14-24.8-30c-0.8-16,5.2-28.8,20.4-35.6c22.4-10.4,43.6-6,66.8,3.6
	c-3.2,8.8-6,16-8.4,22.8c-13.2-1.6-25.6-4.4-38-4.4c-4,0-8.4,6.4-12.4,10c3.6,3.6,6.4,8.4,10.8,10c8,3.2,16.8,3.6,25.2,6
	c16,4.4,24.8,15.2,25.6,31.6c0.4,16.4-6.4,28.8-21.2,35.2C-2547.6,3297.2-2571.6,3293.2-2597.6,3282.4z"/>
<path fill="#FFFFFF" d="M-1859.2,3174.8c-3.2,8.8-5.6,15.6-8.4,23.2c-10.8-2-21.2-5.6-31.2-5.2c-6.4,0.4-12.8,6.4-19.2,9.6
	c5.2,4,10,9.2,16,12.4c5.2,2.4,11.6,2.4,17.2,3.6c17.6,4,28,15.6,28.4,33.6s-9.2,30.4-26,36c-23.2,8-45.6,4.8-70-5.6
	c3.2-8,6.4-15.6,8.8-21.2c16.4,1.2,30.8,3.2,45.2,2.8c4.4,0,8.8-6,13.2-9.6c-3.6-4-6.8-9.6-11.2-11.6c-8-3.2-16.8-4-25.2-6
	c-15.2-4-24-14.4-25.2-29.6c-1.2-16,5.2-28.4,20.4-35.6C-1904,3161.2-1882.4,3164.8-1859.2,3174.8z"/>
<path fill="#FFFFFF" d="M-1564,3197.6c-12,8.4-21.2,10.8-33.6-0.4c-14.8-13.2-32.8-2.4-34,18c-0.4,6-1.2,12.4,0,18
	c2.4,10,4.8,26.4,10.8,28.4c10.4,3.2,23.6-2.8,35.6-4.8c0-2.4-0.4-4.4-0.4-6.8c7.2,2.8,14.4,5.6,21.2,8.4
	c-8.4,26-29.2,37.6-56.8,33.2c-24-3.6-37.2-18.8-38-43.6c-0.4-12,0-24,0-36c0.4-27.6,11.6-41.2,37.2-46
	C-1594,3161.6-1574.4,3172-1564,3197.6z"/>
<path fill="#FFFFFF" d="M-1783.6,3266.8c0,6.4,0,12.8,0,19.2c-32.8,9.2-52.4-5.2-53.2-38.4c-0.4-10,0.4-20,0-30
	c-0.4-9.6,4.4-21.6-10.8-26c-1.2-0.4,1.6-16,4-24c1.2-4,6.4-7.2,6.8-11.2c2.4-20.8,2-21.2,26.4-31.2c0.8,13.6,1.6,26.4,2.4,41.2
	c8.4,0.8,16.8,1.2,26.8,2c0,8,0,16,0,24.8c-8.8,1.2-17.2,2-25.2,2.8C-1815.2,3240.8-1810.4,3256.8-1783.6,3266.8z"/>
<path fill="#FFFFFF" d="M-1952.4,3168.8c0,6.8,0,14,0,21.2c-34.4,6.8-34.4,6.8-34.4,42.4c0,18,0,36,0,55.2c-8.8,0-16.4,0-26,0
	c0-30-1.6-60,0.4-89.6C-2010,3173.2-1982,3160.4-1952.4,3168.8z"/>
<path fill="#FFFFFF" d="M-1709.2,3168.8c0,8.8,0,16.8,0,27.2c-26.4-4.8-40.8,5.2-32.8,35.2c-10.4,0-18.4,0-26.4,0
	C-1778,3182-1762,3164.4-1709.2,3168.8z"/>
<path fill="#FFFFFF" d="M-1694.4,3220.4c10.4,6.4,23.2,9.2,24.4,15.2c6.8,27.2-5.6,50-27.2,53.2c-10.4,1.2-20.8,0.4-33.2,0.4
	c0-9.2,0-17.2,0-24.8C-1699.6,3257.2-1699.6,3257.2-1694.4,3220.4z"/>
<path fill="#FFFFFF" d="M2445.2,3178.4c-0.8-7.2-1.6-14-2.4-24c-4.4,10.4-7.6,18-12.8,30.4c-5.2-12-8.4-19.6-12.8-30
	c-0.8,10-1.6,16.8-2.4,23.6c-1.2,0-2.4,0-3.6,0c0-14.8,0-30,0-44.8c1.6-0.4,3.2-0.8,4.8-1.2c4.4,10.8,9.2,21.6,14.4,33.6
	c4.4-11.6,8.4-22.4,12.4-33.2c2,0.4,3.6,0.4,5.6,0.8c0,14.8,0,29.6,0,44.8C2447.6,3178.4,2446.4,3178.4,2445.2,3178.4z"/>
<path fill="#FFFFFF" d="M2491.6,3178c-12.8-13.6-22.4-16.4-35.6-0.4c4.8-15.2,9.6-30.4,14.8-46c2.4,0,4.4,0,6.8,0
	C2482,3147.2,2486.8,3162.8,2491.6,3178z"/>
<path fill="#FFFFFF" d="M2564,3179.6c-10,0-17.2,0-25.6,0c0-15.6,0-30.4,0-46c8,0,15.2,0,23.6,0c-6.4,5.2-12,9.2-17.2,13.2
	c4.4,3.2,8.4,6.4,12.4,9.2c-3.6,3.6-8,8.4-12.4,12.8C2549.6,3171.6,2554.8,3174.4,2564,3179.6z"/>
<path fill="#FFFFFF" d="M2600.8,3134c24.8-2.4,30.8,1.6,31.2,21.2c0.4,21.6-4.8,25.6-31.2,24.4
	C2600.8,3164.8,2600.8,3150,2600.8,3134z M2602.8,3142.8c3.6,10.4,7.2,20.8,10.8,31.2c3.6-5.2,9.2-10,10-15.6
	C2625.2,3148,2624.8,3136.4,2602.8,3142.8z"/>
<path fill="#FFFFFF" d="M2522.8,3154c2,5.2,7.2,14,6,14.8c-6.4,4.8-14.4,10.4-21.6,10c-4,0-10.4-11.6-10.4-17.6
	c0.4-9.2,4-20,10-27.2c2.4-3.2,14,1.2,21.2,2.4c-0.4,1.6-0.4,3.2-0.8,4.8c-6.8,0-17.6-2.8-20,0.4c-4,5.6-3.6,14.8-3.2,22.4
	c0,3.6,4,8,7.6,9.6c2.4,0.8,9.2-2,9.6-4.4c0.8-3.6-2-8-3.2-12C2519.6,3156.4,2521.2,3155.2,2522.8,3154z"/>
<path fill="#FFFFFF" d="M-1409.2,3178.4c-10,6-16,12.8-20.8,12c-5.2-1.2-8.8-9.2-13.2-14c4.8-4.4,9.6-11.6,15.2-12
	C-1423.6,3164.4-1418.4,3171.6-1409.2,3178.4z"/>
<path fill="#FFFFFF" d="M2664,3165.2c6.4-9.6,12.8-19.6,19.2-29.6c1.2,0,2.8,0.4,4,0.4c0,13.2,0,26.4,0,37.6
	C2680,3170.8,2672.4,3168.4,2664,3165.2z"/>
<path d="M2814,3261.2c-6.8,5.6-11.2,8.8-15.6,12.4c-3.6-4.8-8-9.6-10-15.2c-0.4-1.6,6.8-8.8,10-8
	C2803.2,3251.2,2807.2,3256,2814,3261.2z"/>
<path fill="#FFFFFF" d="M2863.2,3162c-6-6-11.6-12.4-17.6-18.4c0.8-0.8,2-2,2.8-2.8c6,5.6,11.6,10.8,17.6,16.4
	C2865.6,3158.4,2864.4,3160.4,2863.2,3162z"/>
<path fill="#FFFFFF" d="M-1918.4-2332.8c-2-5.2-4-10.8-5.2-16.4c-4.4-20.8-7.2-42.4-13.2-63.2c-7.6-25.6-14.8-28.4-46.4-24.8
	c0,16.4-0.4,33.6,0,50.8c0,10-1.6,17.2-14,16.8c-12-0.4-13.6-7.6-13.6-17.6c0-43.2,0.4-86.4,0-130c0-12.8,4.4-20.8,18-20.4
	c17.2,0,34.8-1.2,51.6,1.6c16,2.8,30.4,11.2,34,29.2c4,19.2,3.2,37.2-14,50.4c-2.4,2-4.8,4.4-4.8,4.4c6.4,17.2,13.6,32,18,48
	c3.6,13.2,3.2,27.6,22.8,25.6c2-0.4,4.4,3.6,6.8,5.6c-2.4,2.8-4.8,7.2-7.6,7.6c-8.4,1.6-17.2,1.6-26.4,2.4c0,10,0,19.2,0,28.8
	C-1914-2333.6-1916-2333.2-1918.4-2332.8z M-1982.8-2463.2c18.8,4,36.8,4.8,47.2-10c5.2-7.2,4.8-23.6-0.4-31.2
	c-11.2-16.4-29.2-12.8-46.8-8.8C-1982.8-2496.4-1982.8-2480.8-1982.8-2463.2z"/>
<path fill="#FFFFFF" d="M-2185.6-2448.4c0-55.6,31.2-91.6,76.4-91.6c58.4,0,91.6,57.6,70.4,122.4c-18,54.4-84.8,70.8-124.8,29.6
	C-2180.8-2405.6-2187.2-2427.6-2185.6-2448.4z M-2162.4-2451.2c4.8,14,8,29.6,15.2,42.4c14.8,26,55.2,27.2,72.8,3.2
	c19.2-26.4,18-55.6,6.8-83.6c-6-15.2-18.8-26.8-38.4-27.2C-2138.8-2517.2-2159.2-2493.6-2162.4-2451.2z"/>
<path fill="#FFFFFF" d="M-2557.2-2369.2c0-54.8-0.4-105.6,0.4-156.8c0-3.6,8-10.4,12.4-10.8c22-1.2,44-1.2,66,0
	c4.8,0.4,9.2,6.8,13.6,10.4c-4.8,3.6-9.6,10.4-14.8,10.8c-16.4,1.2-33.2,0.4-50.8,0.4c0,15.6,0,30,0,46.4c19.2,0,38.4,0,57.2,0
	c7.2,18.4,2,25.6-15.6,24.4c-13.2-0.8-26.4,0-41.2,0c0,17.6,0,33.6,0,52.8c18.4,0,36-0.8,53.6,0.4c5.6,0.4,10.4,6.8,15.6,10.4
	c-5.2,3.6-10,10.4-15.2,10.8C-2502-2368.4-2528-2369.2-2557.2-2369.2z"/>
<path fill="#FFFFFF" d="M-2710.8-2533.2c20-8.4,28.8-2,33.2,15.2c4.8,18.8,10.4,36.8,16.4,55.2c5.6,18.4,12,36.4,18.8,57.2
	c13.2-39.6,25.2-77.2,39.2-114c2.8-7.2,10.8-14.4,18-16.8c9.2-2.8,15.2,2,10.8,13.6c-17.6,47.2-34,94.4-52,141.6
	c-2,5.2-10.8,10.8-16.8,11.2c-5.6,0.4-14.8-4.8-16.4-9.6C-2677.6-2430-2694-2481.2-2710.8-2533.2z"/>
<path fill="#FFFFFF" d="M-2350.8-2516c-24.8-2.4-47.2,2.4-60.4,25.2c-14.8,25.6-15.2,52.4,0.4,77.6c14,22.8,37.6,24.8,61.6,22.8
	c5.2-0.4,10.8-3.6,15.6-2.4c4.8,1.2,10,5.2,12,9.6c1.2,2.4-3.2,10-6.8,11.2c-38,14-79.2,4.8-102-22.8c-24-28.8-24.8-78-2.4-110
	c20.4-29.2,64.8-44,99.6-31.6c5.2,2,8,9.6,12,14.4c-5.2,2.4-10.4,6-15.6,7.2C-2341.2-2514-2346-2515.6-2350.8-2516z"/>
<path fill="#FFFFFF" d="M-2232.8-2514.8c0,44,0.4,85.2-0.4,126.4c0,6-3.2,16-7.6,17.6c-12.4,4.8-19.6-0.4-19.6-15.2
	c0.4-34.8,0.4-69.2,0-104c0-7.6-1.2-15.6-2-24.8c-12.8,0-24.4,1.2-35.2-0.4c-4.8-0.8-8.8-6.8-13.2-10.4c4.4-4,8.8-10.8,13.2-11.2
	c34-0.8,68-0.8,102,0c4,0,7.6,8,11.6,12c-4,3.2-7.6,8.8-12,9.2C-2206.8-2514-2218-2514.8-2232.8-2514.8z"/>
<path fill="#FFFFFF" d="M-1844.4-2325.2c-1.6,11.2,0,25.6-6.4,32.4c-6.4,7.2-20.8,8-32,10.8c-1.6,0.4-6-3.2-6.8-5.6
	c-0.4-2.4,1.2-7.6,3.2-8.4c7.6-3.2,17.6-3.6,22.8-8.8c5.2-4.8,6-14.4,8.4-22C-1851.2-2326.4-1848-2325.6-1844.4-2325.2z"/>
<path d="M-2094.8,3217.6c-2.8-18,4.8-25.6,19.2-24.8c14.8,0.4,21.2,8.8,18.4,24.8C-2069.6,3217.6-2082,3217.6-2094.8,3217.6z"/>
<path d="M2602.8,3142.8c22-6.4,22,5.2,20.4,16c-0.8,5.6-6.4,10.4-10,15.6C2610,3163.6,2606.4,3153.2,2602.8,3142.8z"/>
<path d="M-1982.8-2463.2c0-17.6,0-33.2,0-50c17.6-3.6,35.6-7.6,46.8,8.8c5.2,7.6,5.2,24,0.4,31.2
	C-1946-2458.8-1964-2459.2-1982.8-2463.2z"/>
<path d="M-2162.4-2451.2c3.2-42.4,23.6-66,56.8-65.2c19.6,0.4,32.4,12,38.4,27.2c10.8,28,12.4,57.2-6.8,83.6
	c-17.6,24-58,23.2-72.8-3.2C-2154-2422-2157.2-2437.2-2162.4-2451.2z"/>
<image overflow="visible" enable-background="new    " width="451" height="471" xlink:href="../icons-menu/new/5D25274F.jpeg"  transform="matrix(3.9911 0 0 3.9915 -2274 -638)">
</image>
<polyline fill="none" stroke="#AEB2B7" stroke-miterlimit="10" points="-422,-327.2 -422,-378 -284,-378 -284,-327.2 "/>
<path fill="#FFFFFF" d="M199.8,3C91.5,3,3.7,90.8,3.7,199.1s87.8,196.2,196.1,196.2S396,307.5,396,199.1C396,90.8,308.2,3,199.8,3z
	 M199.8,315.9c-10.7,0-19.4-8.7-19.4-19.3c0-11,8.7-19.7,19.4-19.7c11,0,19.7,8.7,19.7,19.7C219.5,307.3,210.8,315.9,199.8,315.9z
	 M228.2,216.5c-6.7,3.3-8.7,17-8.7,21.7c0,10.7-8.7,19.4-19.7,19.4c-10.7,0-19.4-8.7-19.4-19.4c0-4.3,0.7-41.7,30.3-56.7
	c13.4-6.7,18.4-12.3,18.4-31c0-16-13-29-29.4-29c-16,0-29,13-29,29c0,10.7-8.7,19.7-19.7,19.7c-10.7,0-19.4-9-19.4-19.7
	c0-37.4,30.7-68.1,68.1-68.1c37.7,0,68.1,30.7,68.1,68.1C267.9,182.8,256.2,202.5,228.2,216.5z"/>
</svg>
