<?xml version="1.0" encoding="utf-8"?>
<!-- Generator: Adobe Illustrator 17.1.0, SVG Export Plug-In . SVG Version: 6.00 Build 0)  -->
<!DOCTYPE svg PUBLIC "-//W3C//DTD SVG 1.1//EN" "http://www.w3.org/Graphics/SVG/1.1/DTD/svg11.dtd">
<svg version="1.1" id="Layer_1" xmlns="http://www.w3.org/2000/svg" xmlns:xlink="http://www.w3.org/1999/xlink" x="0px" y="0px"
	 viewBox="0 0 100 100" enable-background="new 0 0 100 100" xml:space="preserve">
<path fill="#AEB2B7" d="M94.8,28.8l-5.6-1.1V10c0-0.6-0.5-1.1-1.1-1.1H10.7c-0.6,0-1.1,0.5-1.1,1.1v77.3c0,0.6,0.5,1.1,1.1,1.1h77.3
	c0.6,0,1.1-0.5,1.1-1.1v-5.9l5.6-2.7c1.6-1,2.5-2.8,2.5-4.7V33.5C97.3,31.6,96.3,29.8,94.8,28.8z M85.7,67.1c0,0.4-0.3,0.7-0.7,0.7
	H34c-0.4,0-0.7-0.3-0.7-0.7V53.1c0-0.4,0.3-0.7,0.7-0.7h51c0.4,0,0.7,0.3,0.7,0.7V67.1z"/>
<g>
	<g>
		<rect x="34.9" y="68.5" fill="#FFFFFF" width="1.9" height="2.9"/>
	</g>
	<g>
		<rect x="38" y="68.5" fill="#FFFFFF" width="1.9" height="2.9"/>
	</g>
	<g>
		<rect x="41.2" y="68.5" fill="#FFFFFF" width="1.9" height="2.9"/>
	</g>
	<g>
		<rect x="44.3" y="68.5" fill="#FFFFFF" width="1.9" height="2.9"/>
	</g>
	<g>
		<rect x="47.5" y="68.5" fill="#FFFFFF" width="1.9" height="2.9"/>
	</g>
	<g>
		<rect x="50.7" y="68.5" fill="#FFFFFF" width="1.9" height="2.9"/>
	</g>
	<g>
		<rect x="53.8" y="68.5" fill="#FFFFFF" width="1.9" height="2.9"/>
	</g>
	<g>
		<rect x="57" y="68.5" fill="#FFFFFF" width="1.9" height="2.9"/>
	</g>
	<g>
		<rect x="60.1" y="68.5" fill="#FFFFFF" width="1.9" height="2.9"/>
	</g>
	<g>
		<rect x="63.3" y="68.5" fill="#FFFFFF" width="1.9" height="2.9"/>
	</g>
	<g>
		<rect x="66.4" y="68.5" fill="#FFFFFF" width="1.9" height="2.9"/>
	</g>
	<g>
		<rect x="69.6" y="68.5" fill="#FFFFFF" width="1.9" height="2.9"/>
	</g>
	<g>
		<rect x="72.7" y="68.5" fill="#FFFFFF" width="1.9" height="2.9"/>
	</g>
	<g>
		<rect x="75.9" y="68.5" fill="#FFFFFF" width="1.9" height="2.9"/>
	</g>
	<g>
		<rect x="79.1" y="68.5" fill="#FFFFFF" width="1.9" height="2.9"/>
	</g>
	<g>
		<rect x="82.2" y="68.5" fill="#FFFFFF" width="1.9" height="2.9"/>
	</g>
</g>
<g>
	<g>
		<rect x="34.9" y="48.8" fill="#FFFFFF" width="1.9" height="2.9"/>
	</g>
	<g>
		<rect x="38" y="48.8" fill="#FFFFFF" width="1.9" height="2.9"/>
	</g>
	<g>
		<rect x="41.2" y="48.8" fill="#FFFFFF" width="1.9" height="2.9"/>
	</g>
	<g>
		<rect x="44.3" y="48.8" fill="#FFFFFF" width="1.9" height="2.9"/>
	</g>
	<g>
		<rect x="47.5" y="48.8" fill="#FFFFFF" width="1.9" height="2.9"/>
	</g>
	<g>
		<rect x="50.7" y="48.8" fill="#FFFFFF" width="1.9" height="2.9"/>
	</g>
	<g>
		<rect x="53.8" y="48.8" fill="#FFFFFF" width="1.9" height="2.9"/>
	</g>
	<g>
		<rect x="57" y="48.8" fill="#FFFFFF" width="1.9" height="2.9"/>
	</g>
	<g>
		<rect x="60.1" y="48.8" fill="#FFFFFF" width="1.9" height="2.9"/>
	</g>
	<g>
		<rect x="63.3" y="48.8" fill="#FFFFFF" width="1.9" height="2.9"/>
	</g>
	<g>
		<rect x="66.4" y="48.8" fill="#FFFFFF" width="1.9" height="2.9"/>
	</g>
	<g>
		<rect x="69.6" y="48.8" fill="#FFFFFF" width="1.9" height="2.9"/>
	</g>
	<g>
		<rect x="72.7" y="48.8" fill="#FFFFFF" width="1.9" height="2.9"/>
	</g>
	<g>
		<rect x="75.9" y="48.8" fill="#FFFFFF" width="1.9" height="2.9"/>
	</g>
	<g>
		<rect x="79.1" y="48.8" fill="#FFFFFF" width="1.9" height="2.9"/>
	</g>
	<g>
		<rect x="82.2" y="48.8" fill="#FFFFFF" width="1.9" height="2.9"/>
	</g>
</g>
<path fill="none" stroke="#AEB2B7" stroke-width="8" stroke-miterlimit="10" d="M15.2,37.5V23.2c0-0.2-0.1-0.4-0.3-0.4H4.3
	C4.1,22.8,4,23,4,23.2v14.3c0,0.2,0.1,0.4,0.3,0.4H15C15.1,37.8,15.2,37.7,15.2,37.5z"/>
<path fill="none" stroke="#AEB2B7" stroke-width="8" stroke-miterlimit="10" d="M16.5,78.6v-8c0-0.1-0.1-0.2-0.2-0.2H6.5
	c-0.1,0-0.2,0.1-0.2,0.2v8c0,0.1,0.1,0.2,0.2,0.2h9.8C16.4,78.8,16.5,78.7,16.5,78.6z"/>
</svg>
