<?xml version="1.0" encoding="utf-8"?>
<!-- Generator: Adobe Illustrator 17.1.0, SVG Export Plug-In . SVG Version: 6.00 Build 0)  -->
<!DOCTYPE svg PUBLIC "-//W3C//DTD SVG 1.1//EN" "http://www.w3.org/Graphics/SVG/1.1/DTD/svg11.dtd">
<svg version="1.1" id="Layer_1" xmlns="http://www.w3.org/2000/svg" xmlns:xlink="http://www.w3.org/1999/xlink" x="0px" y="0px"
	 viewBox="0 0 792 612" enable-background="new 0 0 792 612" xml:space="preserve">
<g>
	<g>
		<g>
			<defs>
				<rect id="SVGID_1_" x="109.6" y="93.6" width="449" height="496.5"/>
			</defs>
			<clipPath id="SVGID_2_">
				<use xlink:href="#SVGID_1_"  overflow="visible"/>
			</clipPath>
			<path clip-path="url(#SVGID_2_)" d="M559.4,438.4c0-9.1-6-15.1-15.1-15.1c-24.1,0-45.3-21.1-45.3-45.3v-59.6
				c0.8-84.5-66.4-156.2-149.4-163.8v-46c0-9.1-6-15.1-15.1-15.1c-9.1,0-15.1,6-15.1,15.1v46c-83,7.5-150.2,79.2-150.2,163.8v59.6
				c0,24.1-21.1,45.3-45.3,45.3c-9.1,0-15.1,6-15.1,15.1c0,37,61.1,59.6,135.8,69.4c4.5,46,41.5,80.7,89,80.7s84.5-34.7,89-80.7
				C498.3,498.1,559.4,475.4,559.4,438.4L559.4,438.4z M334.5,558.4c-28.7,0-52.8-20.4-58.9-47.5c19.6,1.5,39.2,2.3,58.9,2.3
				c19.6,0,39.2-0.8,58.9-2.3C387.3,538,363.2,558.4,334.5,558.4L334.5,558.4z M334.5,483c-101.9,0-161.5-18.1-185.6-33.2
				c30.2-12.1,51.3-39.2,51.3-71.7v-59.6c0-74.7,59.6-135.1,135.1-135.1c74.7,0,135.1,59.6,135.1,135.1v59.6
				c0,33.2,21.1,62.6,51.3,71.7C496.7,465.6,436.4,483,334.5,483L334.5,483z"/>
		</g>
	</g>
</g>
</svg>
