<?xml version="1.0" encoding="utf-8"?>
<!-- Generator: Adobe Illustrator 17.1.0, SVG Export Plug-In . SVG Version: 6.00 Build 0)  -->
<!DOCTYPE svg PUBLIC "-//W3C//DTD SVG 1.1//EN" "http://www.w3.org/Graphics/SVG/1.1/DTD/svg11.dtd">
<svg version="1.1" id="Layer_1" xmlns="http://www.w3.org/2000/svg" xmlns:xlink="http://www.w3.org/1999/xlink" x="0px" y="0px"
	 viewBox="0 0 400 400" enable-background="new 0 0 400 400" xml:space="preserve">
<g>
	<g>
		<g>
			<defs>
				<rect id="SVGID_1_" x="12.8" y="61.2" width="293.5" height="324.5"/>
			</defs>
			<clipPath id="SVGID_2_">
				<use xlink:href="#SVGID_1_"  overflow="visible"/>
			</clipPath>
			<path clip-path="url(#SVGID_2_)" d="M306.8,286.6c0-5.9-3.9-9.9-9.9-9.9c-15.8,0-29.6-13.8-29.6-29.6v-39
				c0.5-55.2-43.4-102.1-97.7-107V71c0-5.9-3.9-9.9-9.9-9.9s-9.9,3.9-9.9,9.9v30.1c-54.3,4.9-98.2,51.8-98.2,107v39
				c0,15.8-13.8,29.6-29.6,29.6c-5.9,0-9.9,3.9-9.9,9.9c0,24.2,40,39,88.8,45.4c3,30.1,27.1,52.8,58.2,52.8s55.2-22.7,58.2-52.8
				C266.8,325.5,306.8,310.7,306.8,286.6L306.8,286.6z M159.8,365c-18.7,0-34.5-13.3-38.5-31.1c12.8,1,25.6,1.5,38.5,1.5
				s25.6-0.5,38.5-1.5C194.3,351.7,178.5,365,159.8,365L159.8,365z M159.8,315.7c-66.6,0-105.5-11.8-121.3-21.7
				c19.7-7.9,33.5-25.6,33.5-46.9v-39c0-48.8,39-88.3,88.3-88.3c48.8,0,88.3,39,88.3,88.3v39c0,21.7,13.8,40.9,33.5,46.9
				C265.8,304.3,226.4,315.7,159.8,315.7L159.8,315.7z"/>
		</g>
	</g>
</g>
</svg>
