<?xml version="1.0" encoding="utf-8"?>
<!-- Generator: Adobe Illustrator 21.0.2, SVG Export Plug-In . SVG Version: 6.00 Build 0)  -->
<svg version="1.1" id="Camada_1" xmlns="http://www.w3.org/2000/svg" xmlns:xlink="http://www.w3.org/1999/xlink" x="0px" y="0px"
	 viewBox="0 0 60 60" style="enable-background:new 0 0 60 60;" xml:space="preserve">
<style type="text/css">
	.st0{fill:#FFFFFF;}
</style>
<g>
	<path class="st0" d="M58.4,3.7c-0.5-0.5-1-0.7-1.7-0.7S55.4,3.2,55,3.7l-5,5c-2.8-2.6-5.9-4.6-9.5-6.1c-3.6-1.4-7.2-2.1-11-2.1
		c-7.1,0-13.3,2.1-18.6,6.4S2.1,16.8,0.4,23.7V24c0,0.3,0.1,0.6,0.4,0.9c0.2,0.2,0.5,0.4,0.9,0.4h7.7c0.6,0,1-0.3,1.2-0.9
		c1.1-2.6,1.8-4.1,2.1-4.5c1.8-2.9,4.2-5.3,7.2-6.9c3-1.7,6.2-2.5,9.7-2.5c5.2,0,9.7,1.8,13.5,5.3l-5.3,5.3
		c-0.5,0.5-0.7,1.1-0.7,1.7c0,0.7,0.2,1.3,0.7,1.7c0.5,0.5,1.1,0.7,1.7,0.7h17.3c0.7,0,1.3-0.2,1.7-0.7c0.5-0.5,0.7-1.1,0.7-1.7V5.5
		C59.2,4.8,58.9,4.2,58.4,3.7L58.4,3.7z"/>
	<path class="st0" d="M57,35.2h-7.4c-0.6,0-1,0.3-1.2,0.9c-1.1,2.6-1.8,4.1-2.1,4.5c-1.8,2.9-4.2,5.3-7.2,6.9
		c-3,1.7-6.2,2.5-9.7,2.5c-2.5,0-4.9-0.5-7.2-1.4s-4.4-2.2-6.2-4l5.3-5.3c0.5-0.5,0.7-1.1,0.7-1.7s-0.2-1.3-0.7-1.7
		c-0.5-0.5-1.1-0.7-1.7-0.7H2.2c-0.7,0-1.3,0.2-1.7,0.7C0,36.4-0.2,37-0.2,37.6V55c0,0.7,0.2,1.3,0.7,1.7c0.5,0.5,1.1,0.7,1.7,0.7
		c0.7,0,1.3-0.2,1.7-0.7l5-5c2.8,2.6,5.9,4.7,9.4,6.1c3.5,1.4,7.2,2.1,10.9,2.1c7.1,0,13.2-2.1,18.5-6.4s8.7-9.9,10.4-16.8
		c0-0.1,0-0.1,0-0.3c0-0.3-0.1-0.6-0.4-0.9C57.6,35.3,57.3,35.2,57,35.2L57,35.2z"/>
</g>
</svg>
