<?xml version="1.0" encoding="utf-8"?>
<!-- Generator: Adobe Illustrator 17.1.0, SVG Export Plug-In . SVG Version: 6.00 Build 0)  -->
<!DOCTYPE svg PUBLIC "-//W3C//DTD SVG 1.1//EN" "http://www.w3.org/Graphics/SVG/1.1/DTD/svg11.dtd">
<svg version="1.1" id="Camada_1" xmlns="http://www.w3.org/2000/svg" xmlns:xlink="http://www.w3.org/1999/xlink" x="0px" y="0px"
	 viewBox="0 0 256.5 225.4" enable-background="new 0 0 256.5 225.4" xml:space="preserve">
<g>
	<g>
		<path fill="#FFFFFF" d="M20.2,223.9h216.4c1.7,0,3-1.3,3-3v-16.4l8.2-5.4c4.4-2.9,7.1-7.8,7.1-13.2V72.4c0-5.3-2.7-10.2-7.1-13.2
			l-8.2-5.4V4.5c0-1.7-1.3-3-3-3H20.2c-1.7,0-3,1.3-3,3v216.4C17.2,222.6,18.5,223.9,20.2,223.9z"/>
		<path d="M236.6,225.4H20.2c-2.5,0-4.5-2-4.5-4.5V4.5c0-2.5,2-4.5,4.5-4.5h216.4c2.5,0,4.5,2,4.5,4.5v48.6l7.5,4.9
			c4.9,3.2,7.8,8.6,7.8,14.4v113.6c0,5.8-2.9,11.2-7.8,14.4l-7.5,4.9v15.6C241.1,223.4,239.1,225.4,236.6,225.4z M20.2,3
			c-0.8,0-1.5,0.7-1.5,1.5v216.4c0,0.8,0.7,1.5,1.5,1.5h216.4c0.8,0,1.5-0.7,1.5-1.5v-17.2l8.9-5.8c4-2.6,6.4-7.1,6.4-11.9V72.4
			c0-4.8-2.4-9.3-6.4-11.9l-8.9-5.8V4.5c0-0.8-0.7-1.5-1.5-1.5H20.2z"/>
	</g>
	<g>
		<path fill="#FFFFFF" d="M136.1,12.9v8.5c0,1.1-0.9,2-2,2H28.8c-1.1,0-2-0.9-2-2v-8.5c0-1.1,0.9-2,2-2h105.3
			C135.2,10.9,136.1,11.8,136.1,12.9z"/>
		<path d="M134.1,24.4H28.8c-1.7,0-3-1.3-3-3v-8.5c0-1.7,1.3-3,3-3h105.3c1.7,0,3,1.3,3,3v8.5C137.1,23.1,135.7,24.4,134.1,24.4z
			 M28.8,11.9c-0.6,0-1,0.4-1,1v8.5c0,0.6,0.4,1,1,1h105.3c0.6,0,1-0.4,1-1v-8.5c0-0.6-0.4-1-1-1H28.8z"/>
	</g>
	<g>
		<path fill="#FFFFFF" d="M230.1,12.9v8.5c0,1.1-0.9,2-2,2h-80.6c-1.1,0-2-0.9-2-2v-8.5c0-1.1,0.9-2,2-2h80.6
			C229.2,10.9,230.1,11.8,230.1,12.9z"/>
		<path d="M228.1,24.4h-80.6c-1.7,0-3-1.3-3-3v-8.5c0-1.7,1.3-3,3-3h80.6c1.7,0,3,1.3,3,3v8.5C231.1,23.1,229.7,24.4,228.1,24.4z
			 M147.5,11.9c-0.6,0-1,0.4-1,1v8.5c0,0.6,0.4,1,1,1h80.6c0.6,0,1-0.4,1-1v-8.5c0-0.6-0.4-1-1-1H147.5z"/>
	</g>
	<g>
		<path fill="#FFFFFF" d="M230.1,204v8.5c0,1.1-0.9,2-2,2h-80.6c-1.1,0-2-0.9-2-2V204c0-1.1,0.9-2,2-2h80.6
			C229.2,202,230.1,202.9,230.1,204z"/>
		<path d="M228.1,215.5h-80.6c-1.7,0-3-1.3-3-3V204c0-1.7,1.3-3,3-3h80.6c1.7,0,3,1.3,3,3v8.5C231.1,214.2,229.7,215.5,228.1,215.5z
			 M147.5,203c-0.6,0-1,0.4-1,1v8.5c0,0.6,0.4,1,1,1h80.6c0.6,0,1-0.4,1-1V204c0-0.6-0.4-1-1-1H147.5z"/>
	</g>
	<g>
		<path fill="#FFFFFF" d="M136.1,204v8.5c0,1.1-0.9,2-2,2H53.4c-1.1,0-2-0.9-2-2V204c0-1.1,0.9-2,2-2h80.6
			C135.2,202,136.1,202.9,136.1,204z"/>
		<path d="M134.1,215.5H53.4c-1.7,0-3-1.3-3-3V204c0-1.7,1.3-3,3-3h80.6c1.7,0,3,1.3,3,3v8.5C137.1,214.2,135.7,215.5,134.1,215.5z
			 M53.4,203c-0.6,0-1,0.4-1,1v8.5c0,0.6,0.4,1,1,1h80.6c0.6,0,1-0.4,1-1V204c0-0.6-0.4-1-1-1H53.4z"/>
	</g>
	<g>
		<g>
			<path fill="#FFFFFF" d="M85.3,165.2c-0.6,0-1-0.4-1-1v-39c0-0.6,0.4-1,1-1h142.8c0.6,0,1,0.4,1,1v39c0,0.6-0.4,1-1,1H85.3z"/>
		</g>
		<g>
			<path d="M228.1,125.2v39H85.3v-39H228.1 M228.1,123.2H85.3c-1.1,0-2,0.9-2,2v39c0,1.1,0.9,2,2,2h142.8c1.1,0,2-0.9,2-2v-39
				C230.1,124.1,229.2,123.2,228.1,123.2L228.1,123.2z"/>
		</g>
	</g>
	<g>
		<g>
			<path d="M93.1,169.3v-3.1h-5.3v3.1c0,0.6,0.4,1,1,1h3.3C92.6,170.3,93.1,169.9,93.1,169.3z"/>
		</g>
		<g>
			<path d="M101.9,169.3v-3.1h-5.3v3.1c0,0.6,0.4,1,1,1h3.3C101.5,170.3,101.9,169.9,101.9,169.3z"/>
		</g>
		<g>
			<path d="M110.7,169.3v-3.1h-5.3v3.1c0,0.6,0.4,1,1,1h3.3C110.3,170.3,110.7,169.9,110.7,169.3z"/>
		</g>
		<g>
			<path d="M119.6,169.3v-3.1h-5.3v3.1c0,0.6,0.4,1,1,1h3.3C119.1,170.3,119.6,169.9,119.6,169.3z"/>
		</g>
		<g>
			<path d="M128.4,169.3v-3.1h-5.3v3.1c0,0.6,0.4,1,1,1h3.3C128,170.3,128.4,169.9,128.4,169.3z"/>
		</g>
		<g>
			<path d="M137.2,169.3v-3.1H132v3.1c0,0.6,0.4,1,1,1h3.3C136.8,170.3,137.2,169.9,137.2,169.3z"/>
		</g>
		<g>
			<path d="M146.1,169.3v-3.1h-5.3v3.1c0,0.6,0.4,1,1,1h3.3C145.6,170.3,146.1,169.9,146.1,169.3z"/>
		</g>
		<g>
			<path d="M154.9,169.3v-3.1h-5.3v3.1c0,0.6,0.4,1,1,1h3.3C154.4,170.3,154.9,169.9,154.9,169.3z"/>
		</g>
		<g>
			<path d="M163.7,169.3v-3.1h-5.3v3.1c0,0.6,0.4,1,1,1h3.3C163.3,170.3,163.7,169.9,163.7,169.3z"/>
		</g>
		<g>
			<path d="M172.6,169.3v-3.1h-5.3v3.1c0,0.6,0.4,1,1,1h3.3C172.1,170.3,172.6,169.9,172.6,169.3z"/>
		</g>
		<g>
			<path d="M181.4,169.3v-3.1h-5.3v3.1c0,0.6,0.4,1,1,1h3.3C180.9,170.3,181.4,169.9,181.4,169.3z"/>
		</g>
		<g>
			<path d="M190.2,169.3v-3.1H185v3.1c0,0.6,0.4,1,1,1h3.3C189.8,170.3,190.2,169.9,190.2,169.3z"/>
		</g>
		<g>
			<path d="M199,169.3v-3.1h-5.3v3.1c0,0.6,0.4,1,1,1h3.3C198.6,170.3,199,169.9,199,169.3z"/>
		</g>
		<g>
			<path d="M207.9,169.3v-3.1h-5.3v3.1c0,0.6,0.4,1,1,1h3.3C207.4,170.3,207.9,169.9,207.9,169.3z"/>
		</g>
		<g>
			<path d="M216.7,169.3v-3.1h-5.3v3.1c0,0.6,0.4,1,1,1h3.3C216.3,170.3,216.7,169.9,216.7,169.3z"/>
		</g>
		<g>
			<path d="M225.5,169.3v-3.1h-5.3v3.1c0,0.6,0.4,1,1,1h3.3C225.1,170.3,225.5,169.9,225.5,169.3z"/>
		</g>
	</g>
	<g>
		<g>
			<path d="M93.1,123.2v-3.1c0-0.6-0.4-1-1-1h-3.3c-0.6,0-1,0.4-1,1v3.1H93.1z"/>
		</g>
		<g>
			<path d="M101.9,123.2v-3.1c0-0.6-0.4-1-1-1h-3.3c-0.6,0-1,0.4-1,1v3.1H101.9z"/>
		</g>
		<g>
			<path d="M110.7,123.2v-3.1c0-0.6-0.4-1-1-1h-3.3c-0.6,0-1,0.4-1,1v3.1H110.7z"/>
		</g>
		<g>
			<path d="M119.6,123.2v-3.1c0-0.6-0.4-1-1-1h-3.3c-0.6,0-1,0.4-1,1v3.1H119.6z"/>
		</g>
		<g>
			<path d="M128.4,123.2v-3.1c0-0.6-0.4-1-1-1h-3.3c-0.6,0-1,0.4-1,1v3.1H128.4z"/>
		</g>
		<g>
			<path d="M137.2,123.2v-3.1c0-0.6-0.4-1-1-1H133c-0.6,0-1,0.4-1,1v3.1H137.2z"/>
		</g>
		<g>
			<path d="M146.1,123.2v-3.1c0-0.6-0.4-1-1-1h-3.3c-0.6,0-1,0.4-1,1v3.1H146.1z"/>
		</g>
		<g>
			<path d="M154.9,123.2v-3.1c0-0.6-0.4-1-1-1h-3.3c-0.6,0-1,0.4-1,1v3.1H154.9z"/>
		</g>
		<g>
			<path d="M163.7,123.2v-3.1c0-0.6-0.4-1-1-1h-3.3c-0.6,0-1,0.4-1,1v3.1H163.7z"/>
		</g>
		<g>
			<path d="M172.6,123.2v-3.1c0-0.6-0.4-1-1-1h-3.3c-0.6,0-1,0.4-1,1v3.1H172.6z"/>
		</g>
		<g>
			<path d="M181.4,123.2v-3.1c0-0.6-0.4-1-1-1h-3.3c-0.6,0-1,0.4-1,1v3.1H181.4z"/>
		</g>
		<g>
			<path d="M190.2,123.2v-3.1c0-0.6-0.4-1-1-1H186c-0.6,0-1,0.4-1,1v3.1H190.2z"/>
		</g>
		<g>
			<path d="M199,123.2v-3.1c0-0.6-0.4-1-1-1h-3.3c-0.6,0-1,0.4-1,1v3.1H199z"/>
		</g>
		<g>
			<path d="M207.9,123.2v-3.1c0-0.6-0.4-1-1-1h-3.3c-0.6,0-1,0.4-1,1v3.1H207.9z"/>
		</g>
		<g>
			<path d="M216.7,123.2v-3.1c0-0.6-0.4-1-1-1h-3.3c-0.6,0-1,0.4-1,1v3.1H216.7z"/>
		</g>
		<g>
			<path d="M225.5,123.2v-3.1c0-0.6-0.4-1-1-1h-3.3c-0.6,0-1,0.4-1,1v3.1H225.5z"/>
		</g>
	</g>
	<g>
		<path fill="#FFFFFF" d="M32.9,81.3v-40c0-0.6-0.3-1-0.7-1H2.2c-0.4,0-0.7,0.4-0.7,1v40c0,0.6,0.3,1,0.7,1h29.9
			C32.6,82.3,32.9,81.8,32.9,81.3z"/>
		<path d="M32.2,83.8H2.2C1,83.8,0,82.7,0,81.3v-40c0-1.4,1-2.5,2.2-2.5h29.9c1.3,0,2.2,1.1,2.2,2.5v40
			C34.4,82.7,33.4,83.8,32.2,83.8z M3,80.8h28.4v-39H3V80.8z"/>
	</g>
	<g>
		<path fill="#FFFFFF" d="M36.4,196.4v-22.5c0-0.3-0.3-0.6-0.7-0.6H8.4c-0.4,0-0.7,0.3-0.7,0.6v22.5c0,0.3,0.3,0.6,0.7,0.6h27.3
			C36.1,197,36.4,196.7,36.4,196.4z"/>
		<path d="M35.7,198.5H8.4c-1.2,0-2.2-0.9-2.2-2.1v-22.5c0-1.1,1-2.1,2.2-2.1h27.3c1.2,0,2.2,0.9,2.2,2.1v22.5
			C37.9,197.5,37,198.5,35.7,198.5z M9.3,195.5h25.7v-20.6H9.3V195.5z"/>
	</g>
</g>
</svg>
