<?xml version="1.0" encoding="utf-8"?>
<!-- Generator: Adobe Illustrator 17.1.0, SVG Export Plug-In . SVG Version: 6.00 Build 0)  -->
<!DOCTYPE svg PUBLIC "-//W3C//DTD SVG 1.1//EN" "http://www.w3.org/Graphics/SVG/1.1/DTD/svg11.dtd">
<svg version="1.1" id="Layer_1" xmlns="http://www.w3.org/2000/svg" xmlns:xlink="http://www.w3.org/1999/xlink" x="0px" y="0px"
	 viewBox="0 0 100 100" enable-background="new 0 0 100 100" xml:space="preserve">
<g>
	<path fill="#AEB2B7" d="M1,1v97.5H99V1H1z M92.7,90.8H7.3v-82h85.4V90.8z M92.7,90.8"/>
	<path fill="#AEB2B7" d="M46.5,66.1H32.6c-0.6,0-1,0.5-1,1v21.7c0,0.6,0.5,1,1,1h13.9c0.6,0,1-0.5,1-1V67.1
		C47.5,66.6,47,66.1,46.5,66.1L46.5,66.1z M46.5,66.1"/>
	<path fill="#AEB2B7" d="M25,51.2H11.1c-0.6,0-1,0.7-1,1.7v35.3c0,0.9,0.5,1.7,1,1.7H25c0.6,0,1-0.7,1-1.7V52.9
		C26.1,52,25.6,51.2,25,51.2L25,51.2z M25,51.2"/>
	<path fill="#AEB2B7" d="M67.9,40.9H54c-0.6,0-1,0.9-1,2.1v44.7c0,1.2,0.5,2.1,1,2.1h13.9c0.6,0,1-1,1-2.1V43
		C68.9,41.8,68.5,40.9,67.9,40.9L67.9,40.9z M67.9,40.9"/>
	<path fill="#AEB2B7" d="M89.4,56H75.5c-0.6,0-1,0.6-1,1.5v30.8c0,0.8,0.5,1.5,1,1.5h13.9c0.6,0,1-0.7,1-1.5V57.5
		C90.4,56.7,89.9,56,89.4,56L89.4,56z M89.4,56"/>
</g>
</svg>
