<?xml version="1.0" encoding="utf-8"?>
<!-- Generator: Adobe Illustrator 21.0.2, SVG Export Plug-In . SVG Version: 6.00 Build 0)  -->
<svg version="1.1" id="Camada_1" xmlns="http://www.w3.org/2000/svg" xmlns:xlink="http://www.w3.org/1999/xlink" x="0px" y="0px"
	 viewBox="0 0 60 60" style="enable-background:new 0 0 60 60;" xml:space="preserve">
<style type="text/css">
	.st0{fill:#444242;}
</style>
<path class="st0" d="M23,13.8h-0.4v-0.7V4c0-0.8-0.3-1.5-0.9-2.1C21.2,1.3,20.5,1,19.6,1c-0.8,0-1.5,0.3-2.1,0.9L2.7,16.7
	c-0.6,0.6-0.9,1.3-0.9,2.1c0,0.8,0.3,1.5,0.9,2.1l14.8,14.8c0.6,0.6,1.3,0.9,2.1,0.9c0.8,0,1.5-0.3,2.1-0.9s0.9-1.3,0.9-2.1V25v-1.8
	H23c14.3,0,25.9,11.5,25.9,25.9v7.1c0,1.4,0.9,2.4,2.4,2.4H56c1.4,0,2.4-0.9,2.4-2.4v-7.1C58.3,29.6,42.5,13.8,23,13.8z"/>
</svg>
