<?xml version="1.0" encoding="utf-8"?>
<!-- Generator: Adobe Illustrator 21.0.2, SVG Export Plug-In . SVG Version: 6.00 Build 0)  -->
<svg version="1.1" id="Camada_1" xmlns="http://www.w3.org/2000/svg" xmlns:xlink="http://www.w3.org/1999/xlink" x="0px" y="0px"
	 viewBox="0 0 60 60" style="enable-background:new 0 0 60 60;" xml:space="preserve">
<style type="text/css">
	.st0{fill:#444242;}
</style>
<g>
	<g>
		<path class="st0" d="M53.4,4c-4.8-4.8-12.6-4.8-17.3,0L4.3,35.8c-0.2,0.2-0.4,0.6-0.5,0.9L1.5,54.2c-0.1,0.5,0.1,1,0.4,1.3
			S2.6,56,3,56c0.1,0,0.1,0,0.2,0l10.5-1.4c0.9-0.1,1.5-0.9,1.4-1.8c-0.1-0.9-0.9-1.5-1.8-1.4l-8.4,1.1l1.6-12.2l12.8,12.8
			c0.3,0.3,0.7,0.5,1.1,0.5s0.8-0.2,1.1-0.5l31.8-31.8c2.3-2.3,3.6-5.4,3.6-8.7C57,9.4,55.7,6.4,53.4,4L53.4,4z M36.7,7.9l5.3,5.3
			l-29,29L7.7,37L36.7,7.9z M20.5,49.8l-5.2-5.2l29-29l5.2,5.2L20.5,49.8z M51.7,18.5L39,5.7c1.6-1.3,3.6-2.1,5.8-2.1
			c2.4,0,4.7,0.9,6.4,2.7c1.7,1.7,2.7,4,2.7,6.4C53.8,14.9,53.1,16.9,51.7,18.5L51.7,18.5z"/>
	</g>
</g>
</svg>
