<?xml version="1.0" encoding="utf-8"?>
<!-- Generator: Adobe Illustrator 21.0.2, SVG Export Plug-In . SVG Version: 6.00 Build 0)  -->
<svg version="1.1" id="Camada_1" xmlns="http://www.w3.org/2000/svg" xmlns:xlink="http://www.w3.org/1999/xlink" x="0px" y="0px"
	 viewBox="0 0 60 60" style="enable-background:new 0 0 60 60;" xml:space="preserve">
<style type="text/css">
	.st0{fill:#444242;}
</style>
<g>
	<path class="st0" d="M43.4,3.5C35-0.6,24.8,2.8,20.7,11.2c-3,6.1-2,13.4,2.4,18.5L12.5,51.3c-0.3,0.7-0.2,1.5,0.3,2.1l3.5,3.7
		c0.2,0.2,0.3,0.3,0.5,0.4c0.2,0.1,0.4,0.2,0.6,0.2l5.1,0.5c0.8,0.1,1.5-0.3,1.8-1l1.2-2.4c0.2-0.4,0.2-0.9,0.1-1.4L24.5,50l3.3-1.1
		c0.5-0.2,0.8-0.5,1.1-0.9l0.9-1.8c0.2-0.4,0.2-0.9,0.1-1.4l-1.1-3.3l3.3-1.1c0.5-0.2,0.8-0.5,1.1-0.9l1.8-3.7
		c6.7,0.4,13.1-3.3,16.1-9.4C55.2,17.8,51.8,7.6,43.4,3.5L43.4,3.5z M36.8,16.9c-2.1-1.1-3-3.7-2-5.8c1.1-2.1,3.7-3,5.8-2
		c2.1,1.1,3,3.7,2,5.8C41.5,17.1,38.9,17.9,36.8,16.9L36.8,16.9z M36.8,16.9"/>
</g>
</svg>
