<?xml version="1.0" encoding="utf-8"?>
<!-- Generator: Adobe Illustrator 21.0.2, SVG Export Plug-In . SVG Version: 6.00 Build 0)  -->
<svg version="1.1" id="Camada_1" xmlns="http://www.w3.org/2000/svg" xmlns:xlink="http://www.w3.org/1999/xlink" x="0px" y="0px"
	 viewBox="0 0 60 60" style="enable-background:new 0 0 60 60;" xml:space="preserve">
<style type="text/css">
	.st0{fill:#444242;}
</style>
<g>
	<g>
		<path class="st0" d="M54.4,26.8L43.7,37.5c-5.9,5.9-15.5,5.9-21.4,0c-0.9-0.9-1.7-2-2.3-3.1l5-5c0.2-0.2,0.5-0.4,0.8-0.5
			c0.3,1.2,0.9,2.3,1.9,3.2c2.9,3,7.7,2.9,10.7,0L49,21.5c3-3,3-7.7,0-10.7c-2.9-2.9-7.7-2.9-10.7,0l-3.8,3.8
			c-3.1-1.2-6.4-1.5-9.6-1.1L33,5.4c5.9-5.9,15.5-5.9,21.4,0S60.3,20.9,54.4,26.8L54.4,26.8z M26.1,44.4l-3.8,3.8
			c-2.9,2.9-7.7,2.9-10.7,0c-2.9-3-2.9-7.7,0-10.7l10.7-10.7c3-3,7.7-3,10.7,0c0.9,0.9,1.5,2,1.9,3.2c0.3-0.2,0.6-0.3,0.8-0.5l5-5
			c-0.6-1.1-1.4-2.1-2.3-3.1c-5.9-5.9-15.5-5.9-21.4,0L6.2,32.2c-5.9,5.9-5.9,15.5,0,21.4s15.5,5.9,21.4,0l8.1-8.1
			C32.5,45.9,29.2,45.6,26.1,44.4L26.1,44.4z"/>
	</g>
</g>
</svg>
