<?xml version="1.0" encoding="utf-8"?>
<!-- Generator: Adobe Illustrator 21.0.2, SVG Export Plug-In . SVG Version: 6.00 Build 0)  -->
<svg version="1.1" id="Camada_1" xmlns="http://www.w3.org/2000/svg" xmlns:xlink="http://www.w3.org/1999/xlink" x="0px" y="0px"
	 viewBox="0 0 60 60" style="enable-background:new 0 0 60 60;" xml:space="preserve">
<style type="text/css">
	.st0{fill:#444242;}
</style>
<g>
	<path class="st0" d="M56.6,10.3c-0.2-0.2-0.5-0.4-0.9-0.4h-12L41,3.5c-0.4-1-1.1-1.8-2.1-2.5s-2-1-3.1-1H23.3c-1,0-2.1,0.3-3.1,1
		s-1.7,1.5-2.1,2.5L15.3,10h-12c-0.4,0-0.7,0.1-0.9,0.4C2.1,10.6,2,10.9,2,11.2v2.5c0,0.4,0.1,0.7,0.4,0.9C2.6,14.9,2.9,15,3.3,15H7
		v37.2c0,2.2,0.6,4,1.8,5.5s2.7,2.3,4.4,2.3h32.5c1.7,0,3.2-0.8,4.4-2.4C51.4,56,52,54.2,52,52V15h3.7c0.4,0,0.7-0.1,0.9-0.4
		c0.2-0.2,0.4-0.5,0.4-0.9v-2.5C57,10.9,56.9,10.6,56.6,10.3L56.6,10.3z M22.7,5.4C22.9,5.2,23.1,5,23.3,5h12.4
		c0.3,0,0.5,0.2,0.7,0.4l1.9,4.6H20.8L22.7,5.4z M47,52c0,0.6-0.1,1.1-0.3,1.6s-0.4,0.8-0.6,1.1C46,54.9,45.8,55,45.8,55H13.3
		c-0.1,0-0.2-0.1-0.4-0.3s-0.4-0.6-0.6-1.1c-0.2-0.5-0.3-1-0.3-1.6V15h35V52z"/>
	<path class="st0" d="M18.3,47.5h2.5c0.4,0,0.7-0.1,0.9-0.4c0.2-0.2,0.4-0.5,0.4-0.9V23.7c0-0.4-0.1-0.7-0.4-0.9
		c-0.2-0.2-0.5-0.4-0.9-0.4h-2.5c-0.4,0-0.7,0.1-0.9,0.4C17.2,23,17,23.3,17,23.7v22.5c0,0.4,0.1,0.7,0.4,0.9
		C17.6,47.4,17.9,47.5,18.3,47.5L18.3,47.5z"/>
	<path class="st0" d="M28.3,47.5h2.5c0.4,0,0.7-0.1,0.9-0.4c0.2-0.2,0.4-0.5,0.4-0.9V23.7c0-0.4-0.1-0.7-0.4-0.9
		c-0.2-0.2-0.5-0.4-0.9-0.4h-2.5c-0.4,0-0.7,0.1-0.9,0.4C27.2,23,27,23.3,27,23.7v22.5c0,0.4,0.1,0.7,0.4,0.9
		C27.6,47.4,27.9,47.5,28.3,47.5L28.3,47.5z"/>
	<path class="st0" d="M38.3,47.5h2.5c0.4,0,0.7-0.1,0.9-0.4c0.2-0.2,0.4-0.5,0.4-0.9V23.7c0-0.4-0.1-0.7-0.4-0.9
		c-0.2-0.2-0.5-0.4-0.9-0.4h-2.5c-0.4,0-0.7,0.1-0.9,0.4C37.2,23,37,23.3,37,23.7v22.5c0,0.4,0.1,0.7,0.4,0.9
		C37.6,47.4,37.9,47.5,38.3,47.5L38.3,47.5z"/>
</g>
</svg>
